<svg width="226" height="136" viewBox="0 0 226 136" fill="none" xmlns="http://www.w3.org/2000/svg">
<path d="M184.848 55.0591C174.507 52.7322 168.5 60.6451 167.824 66.4971C167.026 73.4131 166.867 87.1919 167.292 90.1711C167.824 93.8951 169.952 99.4811 177.666 100.279C183.838 100.918 187.508 95.9344 188.572 93.3631L196.02 75.5411C198.946 66.7631 195.488 57.4531 184.848 55.0591Z" fill="#93C862"/>
<path d="M108.24 76.6051C107.389 87.8835 109.836 105.599 111.166 113.047C111.521 117.037 114.624 123.421 122.338 123.421C129.054 123.421 131.914 115.973 131.648 113.047V104.801C143.086 116.239 150.8 125.017 171.548 132.465C195.754 139.913 212.246 130.869 219.162 122.091C226.078 113.313 227.142 93.3631 218.098 86.1811C209.054 78.9991 202.138 85.3831 199.744 90.9691C197.35 96.5551 192.828 107.993 181.922 107.993C163.622 109.27 150.18 97.1758 145.746 90.9691L155.588 80.8611C157.894 78.3785 161.121 72.0299 155.588 66.4971C150.056 60.9643 143.884 63.3051 141.49 65.1671C139.717 66.8518 134.84 71.4979 129.52 76.6051C129.095 68.9444 124.023 65.7878 121.54 65.1671C117.462 64.2805 109.092 65.3267 108.24 76.6051Z" fill="#93C862"/>
<path d="M78.9803 108.791C65.9463 108.791 62.7543 114.111 62.7543 117.569C62.7543 125.549 78.1823 127.411 83.5023 127.411C93.0783 127.411 102.92 124.219 102.92 117.569C102.92 111.621 97.8663 108.791 78.9803 108.791Z" fill="#93C862"/>
<path d="M24.9823 34.0451C30.8343 30.0551 38.2823 30.3211 41.4743 30.8531C34.0263 42.2911 16.4703 78.4671 16.4703 88.3091C13.7039 120.655 37.307 125.017 49.4543 123.155C55.8383 121.293 57.4343 112.515 52.9123 108.259C48.9223 101.609 45.4096 94.1611 47.3263 81.1271C49.9863 63.0391 60.0943 50.5371 67.5423 40.4291L83.2363 47.8771C101.963 56.8147 122.782 58.5171 130.85 58.2511C150.8 57.4531 159.02 49.7391 163.302 44.4191C172.08 33.5131 169.154 12.4991 156.386 7.44514C145.214 3.02289 139.857 8.77514 136.17 14.3611C127.392 27.6611 112.496 24.8338 107.974 24.4691C91.4823 23.1391 73.3943 18.0851 53.1783 6.91315C37.0055 -2.02445 22.677 -0.357519 17.5343 1.59315C-0.819677 8.77515 -1.08567 24.7351 1.8403 31.6511C7.95833 43.3551 18.0663 38.7606 24.9823 34.0451Z" fill="#93C862"/>
<path fill-rule="evenodd" clip-rule="evenodd" d="M84.8046 100.29C94.5618 98.1182 101.856 89.4105 101.856 78.9991C101.856 66.9527 92.0908 57.1871 80.0443 57.1871C67.9979 57.1871 58.2323 66.9527 58.2323 78.9991C58.2323 85.9773 61.5092 92.1901 66.6081 96.1826C63.5232 99.8077 62.5686 101.867 68.0743 101.343C68.6616 101.343 69.4176 101.358 70.2877 101.376C74.5293 101.462 81.4812 101.603 84.8046 100.29ZM87.7583 68.6251C88.9336 68.6251 89.8863 69.5779 89.8863 70.7531V75.5411C89.8863 76.7164 88.9336 77.6691 87.7583 77.6691C86.5831 77.6691 85.6303 76.7164 85.6303 75.5411V70.7531C85.6303 69.5779 86.5831 68.6251 87.7583 68.6251ZM69.4043 73.6791C69.4043 72.5039 70.3571 71.5511 71.5323 71.5511H76.3203C77.4956 71.5511 78.4483 72.5039 78.4483 73.6791C78.4483 74.8544 77.4956 75.8071 76.3203 75.8071H71.5323C70.3571 75.8071 69.4043 74.8544 69.4043 73.6791ZM84.5663 81.6591C82.793 82.1911 78.4483 83.0423 75.2563 82.1911C71.2663 81.1271 69.9363 85.3831 72.5963 87.7771C75.2563 90.1711 82.1723 91.7671 87.4923 87.2451C90.9503 82.7231 86.4283 80.5951 84.5663 81.6591Z" fill="#93C862"/>
<path d="M187 46.5C185 31.8333 189.8 2.89999 225 4.49999C227.5 40 200.667 43.3333 187 46.5Z" fill="#61A400"/>
<path d="M187 46.5C185 31.8333 189.8 2.89999 225 4.49999C197.5 35 196 35.5 187 46.5Z" fill="#72B80C"/>
</svg>
