<svg width="180" height="198" viewBox="0 0 180 198" fill="none" xmlns="http://www.w3.org/2000/svg">
<rect width="165" height="198" rx="14" fill="#B125BA"/>
<rect width="165" height="198" rx="14" fill="#B125BA"/>
<path d="M0 141.46C63.4851 131.48 99.6306 131.546 165 141.46V184C165 191.732 158.732 198 151 198H14C6.26801 198 0 191.732 0 184V141.46Z" fill="#D069EC"/>
<ellipse opacity="0.79" cx="78.5" cy="149.5" rx="53.5" ry="14.5" fill="#BE56E9"/>
<path d="M49 55.5L46.5 66.5L41.5 81L36.5 94.5L30 107L21.5 120L14 131L7.5 140C7.5 146 3.16667 149.833 1 151C8 159.5 14 169 16 175.5L17.5 181L13 183C13.6667 183.167 5 184.5 1 184.5V151V21.5V18V14.5V12L2.5 10L4.5 13L8 18.5L11.5 23.5L15 28L18.5 31.5L22 35.5L26.5 40L32 45L38.5 49.5L43.5 52.5L49 55.5Z" fill="#EA5DEA" stroke="#EA5DEA"/>
<path d="M116 54.5L118.5 65.5L123.5 80L128.5 93.5L135 106L143.5 119L151 130L157.5 139C157.5 145 161.833 148.833 164 150C157 158.5 151 168 149 174.5L147.5 180L152 182C151.333 182.167 160 183.5 164 183.5V150V20.5V17V13.5V11L162.5 9L160.5 12L157 17.5L153.5 22.5L150 27L146.5 30.5L143 34.5L138.5 39L133 44L126.5 48.5L121.5 51.5L116 54.5Z" fill="#EA5DEA" stroke="#EA5DEA"/>
<path fill-rule="evenodd" clip-rule="evenodd" d="M83 58C127.735 58 164 38.3215 164 14.0469C164 11.4592 163.588 8.92368 162.797 6.4587C160.309 2.57442 155.955 0 151 0H14C10.1182 0 6.60541 1.57984 4.06949 4.13161C2.71551 7.31815 2 10.6372 2 14.0469C2 38.3215 38.2649 58 83 58Z" fill="#EA5DEA"/>
<path d="M84.1233 157.322L83.0623 152.266C81.5371 144.998 102.394 142.942 101.641 148.708C100.888 154.475 98.6088 162.541 91.2041 161.444C86.3586 160.727 84.4549 158.902 84.1233 157.322Z" fill="#FFA01F"/>
<path d="M117.386 121.444L114.996 117.568C111.963 112.216 115.54 109.032 117.725 105.934C119.176 105.166 124.642 103.903 127.539 105.044C131.033 107.154 132.44 111.382 130.85 116.13C128.961 120.395 121.915 121.034 117.386 121.444L117.386 121.444Z" fill="#FFA01F"/>
<path d="M48.8806 140.703C49.3662 136.828 53.695 135.15 57.1789 131.997C66.1424 131.245 67.755 142.6 67.5224 147.454C66.8447 147.769 63.7547 150.609 59.0141 151.807C51.3572 153.741 48.2971 145.361 48.8806 140.703Z" fill="#FFBE2E"/>
<path d="M104.019 73.0312C104.26 80.611 110.291 83.3564 113.055 83.6602C117.037 80.0232 115.76 75.6687 114.524 74.1248C111.199 71.101 109.314 70.7559 104.019 73.0312Z" fill="#E57C17"/>
<path d="M44.3118 96.8642C48.5372 92.3881 56.2493 94.2465 58.5209 96.8543C66.5916 103.626 68.463 111.045 69.5304 117.087C71.6296 128.97 64.2638 134.192 57.5802 133.263C52.9401 135.219 48.9736 122.533 44.9572 117.526C40.0144 107.997 38.766 102.739 44.3118 96.8642Z" fill="#E57C17"/>
<path d="M97.9857 149.551C83.7119 153.866 68.6031 148.999 64.7944 145.399L64.733 145.352C61.9933 143.273 56.8853 139.397 56.7948 130.265C56.1133 122.908 55.5584 104.285 58.0743 92.0344C60.6974 79.2622 68.9504 67.0026 88.7661 67.2519C119.149 65.4948 118.409 100.65 118.136 110.377C117.842 120.891 115.828 144.157 97.9857 149.551Z" fill="#FFBE2E"/>
<path d="M35.9839 124.409C39.4601 129.535 54.7495 123.359 59.8812 119.753C69.6728 113.409 73.0661 109.369 71.1612 101.85C69.2564 94.332 61.5972 95.1624 57.4978 99.5049C55.6491 101.463 45.0941 108.048 40.454 110.004C34.3485 112.577 30.901 116.913 35.9839 124.409Z" fill="#FFBE2E"/>
<path d="M62.6233 80.8783C70.147 81.0145 72.8686 75.5152 73.2889 72.7485C69.8557 68.5578 65.8302 69.8438 64.2466 71.0106C60.9587 73.8668 60.5965 75.4345 62.6233 80.8783Z" fill="#E57C17"/>
<path d="M99.0999 107.97C99.1086 109.351 97.9963 110.475 96.6153 110.481C95.2344 110.487 94.1079 109.373 94.0991 107.992L99.0999 107.97ZM94.0991 107.992L94.0619 102.112L99.0626 102.09L99.0999 107.97L94.0991 107.992Z" fill="white"/>
<path d="M95.0266 107.828C95.0354 109.209 93.923 110.333 92.5421 110.339C91.1612 110.345 90.0346 109.231 90.0259 107.85L95.0266 107.828ZM90.0259 107.85L89.9886 101.97L94.9894 101.948L95.0266 107.828L90.0259 107.85Z" fill="white"/>
<path d="M104.252 102.939C104.288 106.541 101.562 106.764 100.028 106.647L89.3655 106.591C87.0537 106.289 84.8761 104.696 85.1444 102.114C85.4035 99.6198 87.3553 98.5878 92.4585 98.8924L98.5683 99.1057C101.588 98.8318 104.222 99.872 104.252 102.939Z" fill="#FFF9BF"/>
<path d="M92.6398 98.1084L98.498 98.3445C98.6155 99.6129 97.8675 102.495 94.7773 102.007C92.7172 101.683 92.414 99.3226 92.6398 98.1084Z" fill="#E57C17"/>
<path d="M109.617 97.8477C108.858 96.0407 106.498 93.2191 103.138 96.3889" stroke="#793900" stroke-width="2" stroke-linecap="round"/>
<path d="M85.5872 95.9343C84.8959 93.9506 82.4666 92.3803 79.729 95.6982" stroke="#793900" stroke-width="2" stroke-linecap="round"/>
<path d="M83.6003 88.1846L79.0709 88.5954" stroke="#E47A17" stroke-width="3" stroke-linecap="round"/>
<path d="M109.345 89.4312L105.177 88.2743" stroke="#E47A17" stroke-width="3" stroke-linecap="round"/>
<path d="M109.753 134.927C108.249 145.846 96.1476 147.842 90.106 147.452C73.0819 147.206 69.0586 139.385 69.5647 131.153C72.2113 118.635 81.1527 116.545 96.5087 117.966C98.7884 118.177 111.574 121.716 109.753 134.927Z" fill="#FFF9BF"/>
<path d="M94.9537 136.781L88.9448 140.395" stroke="#FFCA57" stroke-width="2" stroke-linecap="round"/>
<path d="M94.3702 141.438L89.8505 136.476" stroke="#FFCA57" stroke-width="2" stroke-linecap="round"/>
<path fill-rule="evenodd" clip-rule="evenodd" d="M135 153H96.5L95.7056 171.669C93.9799 172.66 93 173.794 93 175C93 178.866 103.074 182 115.5 182C125.109 182 133.311 180.126 136.536 177.489L137 177.5L136.968 177.102C137.638 176.439 138 175.733 138 175C138 174.142 137.504 173.321 136.597 172.561L135 153Z" fill="#8C3DEE"/>
<ellipse cx="115.5" cy="147.5" rx="33.5" ry="8.5" fill="#9D4BEB"/>
<ellipse cx="115.5" cy="147" rx="19.5" ry="4" fill="#7E2FE3"/>
<path fill-rule="evenodd" clip-rule="evenodd" d="M152.494 20.0997C152.494 38.5037 122.276 53.4231 85.0001 53.4231C47.7242 53.4231 17.5062 38.5037 17.5062 20.0997C17.5062 19.0545 17.6037 18.0206 17.7944 17C16.6178 17.8924 15.5867 18.9666 14.7428 20.1807C14.2534 21.8166 14 23.4896 14 25.1914C14 44.2527 45.7878 59.705 85 59.705C124.212 59.705 156 44.2527 156 25.1914C156 24.4111 155.947 23.6369 155.842 22.8695C155.003 20.8156 153.69 19.0056 152.039 17.5754C152.174 17.8673 152.299 18.1646 152.414 18.4669C152.467 19.0079 152.494 19.5522 152.494 20.0997Z" fill="#D044D0"/>
<path fill-rule="evenodd" clip-rule="evenodd" d="M117.707 51.6067C115.528 65.8102 123.543 87.2728 139.575 106.691C147.48 116.267 156.243 124.024 164.818 129.492C163.575 133.705 163.22 137.023 164.5 139C156.023 138.239 146.107 126.883 142.263 121.284C125.781 101.319 108.947 65.3675 117.707 51.6067Z" fill="#D044D0"/>
<path fill-rule="evenodd" clip-rule="evenodd" d="M131.752 47.4921C129.305 47.2974 127.541 46.8412 126.882 45.8449C125.04 50.1063 128.155 57.0745 129.965 60.0022C135.69 71.7905 149.371 86.779 158.597 85.1309C150.875 83.4983 142.174 75.5386 136.606 64.0728C133.86 58.4186 132.255 52.6927 131.752 47.4921Z" fill="#D044D0"/>
<path fill-rule="evenodd" clip-rule="evenodd" d="M153.189 180.758C152.219 181.431 151.521 182.124 151.263 182.929C150.521 180.525 151.737 175.232 152.447 172.897C154.566 164.321 159.506 152.265 163.135 150.193C163.385 150.58 163.615 150.98 163.826 151.391C163.622 151.082 163.406 150.782 163.178 150.49C160.267 153.603 157.115 160.453 155.069 168.733C153.995 173.076 153.375 177.213 153.189 180.758Z" fill="#D044D0"/>
<path fill-rule="evenodd" clip-rule="evenodd" d="M153.189 180.758C152.219 181.431 151.521 182.124 151.262 182.929C150.521 180.525 151.737 175.232 152.446 172.897C154.566 164.321 159.506 152.265 163.134 150.193C163.385 150.58 163.615 150.98 163.826 151.391C163.622 151.082 163.406 150.782 163.177 150.49C160.267 153.603 157.115 160.453 155.069 168.733C153.995 173.076 153.374 177.213 153.189 180.758Z" fill="#D044D0"/>
<path fill-rule="evenodd" clip-rule="evenodd" d="M34.6451 49.8764C37.1112 48.5479 38.8449 47.1517 39.3802 45.482C41.8383 50.6087 39.6183 61.6397 38.1751 66.491C33.9553 85.3494 22.0702 112.094 12.4478 113.792C20.0896 108.185 27.8637 93.3613 31.968 75.0189C33.992 65.9734 34.844 57.3217 34.6451 49.8764Z" fill="#D044D0"/>
<path fill-rule="evenodd" clip-rule="evenodd" d="M23.8324 42.0395C26.2339 40.9996 27.9063 39.8771 28.3802 38.482C30.9954 42.9064 29.1712 52.1686 27.9056 56.226C24.3658 72.0458 13.4902 94.2787 4.00005 95.3853C11.3907 90.9013 18.5961 78.6192 22.0391 63.2321C23.737 55.6441 24.2853 48.3492 23.8324 42.0395Z" fill="#D044D0"/>
<path fill-rule="evenodd" clip-rule="evenodd" d="M27.0322 11C26.6399 11.5666 26.2883 12.1636 25.9817 12.7866C26.8433 24.9061 52.0396 34.6265 82.9959 34.6265C112.899 34.6265 137.428 25.5562 139.838 14.0149C139.441 12.9635 138.921 11.9725 138.296 11.0593C140.336 12.6372 141.928 14.7658 142.849 17.2222C140.678 29.3156 114.71 38.8645 82.9959 38.8645C50.096 38.8645 23.3808 28.5885 23 15.8559C23.9609 13.9458 25.3462 12.2859 27.0322 11Z" fill="#D044D0"/>
<path fill-rule="evenodd" clip-rule="evenodd" d="M55.2115 5.91357C54.4376 6.7908 53.772 7.76573 53.2354 8.81748C56.3556 15.1883 68.8973 19.9523 83.8942 19.9523C98.5892 19.9523 110.927 15.3782 114.353 9.20025C113.798 8.02501 113.084 6.93944 112.24 5.9712C113.849 7.29849 115.157 8.9784 116.045 10.8927C112.602 17.3927 99.5138 22.2295 83.8942 22.2295C67.9432 22.2295 54.6325 17.1852 51.5371 10.4766C52.4303 8.70735 53.688 7.15344 55.2115 5.91357Z" fill="#D044D0"/>
<line x1="125.256" y1="111.798" x2="128.798" y2="96.7444" stroke="#692424" stroke-width="2" stroke-linecap="round"/>
<path d="M130.269 88.7101C130.716 87.998 131.813 88.2665 131.881 89.1049L132.132 92.1845C132.171 92.6673 132.515 93.0707 132.986 93.1859L136.002 93.9243C136.831 94.127 136.909 95.274 136.116 95.5878L133.3 96.7022C132.84 96.8843 132.553 97.3461 132.593 97.8396L132.838 100.848C132.906 101.691 131.858 102.131 131.304 101.492L129.246 99.1161C128.933 98.7549 128.426 98.6308 127.982 98.8066L125.059 99.9633C124.272 100.274 123.546 99.3997 123.996 98.6838L125.603 96.1285C125.867 95.7094 125.825 95.1672 125.501 94.793L123.518 92.5038C122.96 91.8593 123.559 90.8783 124.387 91.081L127.404 91.8194C127.874 91.9346 128.366 91.7357 128.624 91.3256L130.269 88.7101Z" fill="#FFE922" stroke="#FECD0C" stroke-width="0.25"/>
<path d="M140 90L140.27 90.7299L141 91L140.27 91.2701L140 92L139.73 91.2701L139 91L139.73 90.7299L140 90Z" fill="#FFD500"/>
<path d="M138 83L138.54 84.4598L140 85L138.54 85.5402L138 87L137.46 85.5402L136 85L137.46 84.4598L138 83Z" fill="#FFD500"/>
<path d="M135.5 87L136.175 88.8248L138 89.5L136.175 90.1752L135.5 92L134.825 90.1752L133 89.5L134.825 88.8248L135.5 87Z" fill="#FFD500"/>
<path d="M97.1637 123.107C95.4419 119.394 97.1763 114.995 100.969 113.456C104.966 111.834 109.479 114.086 110.586 118.254L117 142.4L107.5 145.4L97.1637 123.107Z" fill="white"/>
<path d="M100.647 123.197C99.764 121.423 100.602 119.275 102.452 118.567C104.236 117.884 106.228 118.825 106.835 120.635L113.966 141.911L110.5 143L100.647 123.197Z" fill="#FFD8D8"/>
<path d="M134.789 123.643C136.472 120.171 134.934 115.995 131.4 114.445C127.693 112.819 123.395 114.769 122.178 118.63L115 141.4L124 145.9L134.789 123.643Z" fill="white"/>
<path d="M130.786 124.18C131.646 122.481 130.847 120.412 129.068 119.732C127.365 119.082 125.463 119.979 124.882 121.707L117.917 142.411L121 143.5L130.786 124.18Z" fill="#FFD8D8"/>
<path d="M103 151C103 146.029 107.029 142 112 142H119C123.971 142 128 146.029 128 151H103Z" fill="white"/>
<path d="M0 161H36C42.6274 161 48 166.373 48 173V198H12C5.37258 198 0 192.627 0 186V161Z" fill="white"/>
</svg>
