<svg width="165" height="199" viewBox="0 0 165 199" fill="none" xmlns="http://www.w3.org/2000/svg">
<rect width="165" height="198" rx="14" fill="#9772F3"/>
<path d="M0 157H165V184C165 192.284 158.284 199 150 199H15C6.71572 199 0 192.284 0 184V157Z" fill="#AC8BFE"/>
<path fill-rule="evenodd" clip-rule="evenodd" d="M153.5 75C152.672 75 152 75.6716 152 76.5V95.5C152 96.3284 152.672 97 153.5 97H159.5C160.328 97 161 96.3284 161 95.5V76.5C161 75.6716 160.328 75 159.5 75H153.5ZM155.5 78C154.672 78 154 78.6716 154 79.5V92.5C154 93.3284 154.672 94 155.5 94H158.5C159.328 94 160 93.3284 160 92.5V79.5C160 78.6716 159.328 78 158.5 78H155.5Z" fill="#C2A6FB"/>
<path fill-rule="evenodd" clip-rule="evenodd" d="M12.5 112C13.3284 112 14 112.672 14 113.5V155.5C14 156.328 13.3284 157 12.5 157H1.5C0.671573 157 0 156.328 0 155.5V113.5C0 112.672 0.671573 112 1.5 112H12.5ZM9.38889 118.136C10.2173 118.136 10.8889 118.808 10.8889 119.636V149.364C10.8889 150.192 10.2173 150.864 9.38889 150.864H3.05556C2.22713 150.864 1.55556 150.192 1.55556 149.364V119.636C1.55556 118.808 2.22713 118.136 3.05555 118.136H9.38889Z" fill="#C2A6FB"/>
<path d="M156 123C156 121.895 156.895 121 158 121H162V153H156V123Z" fill="#734CD1"/>
<path d="M150 138C150 136.895 150.895 136 152 136H156V153H152C150.895 153 150 152.105 150 151V138Z" fill="#C2A6FB"/>
<path fill-rule="evenodd" clip-rule="evenodd" d="M165 49H117V157H165V49ZM159.857 55H123.857V96H159.857V55ZM123.857 102H159.857V153H123.857V102Z" fill="#8056E6"/>
<path fill-rule="evenodd" clip-rule="evenodd" d="M117 57H111C108.791 57 107 58.7909 107 61C107 63.2091 108.791 65 111 65H117V57Z" fill="#8056E6"/>
<path d="M126.33 79.6454C135.64 87.4715 123.605 102.35 117.229 107.989C110.421 106.356 105.825 106.31 99.9311 103.264C107.584 100.972 114.347 69.5721 126.33 79.6454Z" fill="#EB710D"/>
<path d="M50.1098 104.468L54.1852 113.892C61.676 124.552 72.3344 146.928 55.041 151.151C37.7476 155.375 26.8251 137.249 23.5255 127.658L8.70618 93.3862C26.0739 81.8082 43.14 90.7007 50.1098 104.468Z" fill="#EB710D"/>
<path d="M32.5458 93.2477L40.697 93.2826C27.4285 83.7649 13.5962 89.4071 8.70617 93.386L18.524 116.091C21.4603 114.415 21.5153 106.153 21.1758 102.232C25.4365 105.814 34.4488 113.172 36.4125 113.95C39.4415 110.606 35.0968 98.7551 32.5458 93.2477Z" fill="#FFE5C2"/>
<path d="M73.1721 167.211C50.4974 159.93 53.5978 140.758 57.9823 132.082C56.1415 125.081 55.4933 120.446 54.1272 114.934C57.1145 110.083 56.6401 96.0504 51.708 86.9961C41.0932 79.3819 39.3119 69.3041 39.7481 65.217C43.5344 61.0374 57.9956 60.3776 63.2173 64.2217C66.8298 59.4052 75.6873 54.2531 79.9714 52.4007C80.7702 53.0723 81.6965 55.2143 82.6227 57.3563C85.1931 56.2448 86.7908 57.5879 88.0181 58.0742C88.6782 53.7208 100.361 46.6352 102.815 47.6078C105.27 48.5804 110.098 63.2734 106.126 67.0246C118.408 89.7832 118.614 119.424 117.182 131.4C113.824 154.209 109.702 168.196 73.1721 167.211Z" fill="#FC821E"/>
<path d="M48.9272 174.643C45.0486 169.202 45.5234 164.42 46.8665 162.822C48.2096 161.224 50.78 160.113 52.1811 157.473C53.5821 154.833 55.8399 151.823 55.8399 151.823C63.5167 137.825 83.9287 157.983 74.2143 167.269C64.4999 176.554 53.8107 181.495 48.9272 174.643Z" fill="#FC821E"/>
<path d="M84.1714 176.184L80.0961 166.759L80.2174 166.64C87.8879 159.123 92.9833 154.129 104.04 160.982C104.769 177.956 99.501 178.709 93.1329 180.445C88.0385 181.834 85.0359 178.183 84.1714 176.184Z" fill="#EB710D"/>
<path d="M56.8489 84.7729L51.7081 86.9959C46.8569 84.0085 38.7986 74.7805 39.6903 66.2589C47.2857 65.0086 58.3158 70.9176 62.8814 74.0284C63.0281 75.1516 62.9786 77.5459 61.6077 78.1387C58.6159 77.8052 56.135 78.8101 55.0544 79.4469L56.8489 84.7729Z" fill="#FFE5C2"/>
<rect width="10.2682" height="5.60082" rx="2.80041" transform="matrix(-0.917866 0.396889 0.396889 0.917866 82.2518 75.3142)" fill="#FFCB90"/>
<rect width="8.85057" height="5.60082" rx="2.80041" transform="matrix(-0.999226 -0.039341 -0.039341 0.999226 105.933 71.2808)" fill="#FFCB90"/>
<path d="M107.596 85.712L102.514 86.8929" stroke="#441F00" stroke-width="4" stroke-linecap="round"/>
<ellipse cx="2.80041" cy="4.20062" rx="2.80041" ry="4.20062" transform="matrix(-0.917866 0.396889 0.396889 0.917866 82.9 86.2209)" fill="#441F00"/>
<path d="M92.7528 100.775C93.6735 102.905 96.3188 104.318 98.704 102.778C100.833 101.858 101.813 99.3849 100.892 97.2555C99.9716 95.1261 97.499 94.1463 95.3696 95.0671C93.2402 95.9878 91.832 98.6457 92.7528 100.775Z" fill="#FFA896"/>
<path d="M87.466 99.6034C88.5095 102.017 91.3118 103.127 93.7252 102.084C96.1385 101.04 97.2489 98.2378 96.2054 95.8245C96.7705 92.4274 92.3595 92.3007 89.9462 93.3442C87.5329 94.3878 86.4225 97.1901 87.466 99.6034Z" fill="white"/>
<circle cx="4.7607" cy="4.7607" r="4.7607" transform="matrix(-0.917866 0.396889 0.396889 0.917866 103.255 88.6064)" fill="white"/>
<ellipse cx="3.53101" cy="1.99965" rx="3.53101" ry="1.99965" transform="matrix(-0.958298 0.285771 0.285771 0.958298 98.5604 89.5105)" fill="#451F00"/>
<path d="M83.9293 139.168C80.9185 155.725 76.754 162.95 73.786 167.454C80.4087 168.658 92.4154 167.026 103.612 161.168C112.569 156.481 115.688 143.233 117.24 130.358C112.216 111.682 86.94 122.611 83.9293 139.168Z" fill="white"/>
<path d="M103.878 148.848L97.5217 154.14" stroke="#E5A56B" stroke-width="2.625" stroke-linecap="round"/>
<path d="M97.8113 148.929L102.975 153.815" stroke="#E5A56B" stroke-width="2.625" stroke-linecap="round"/>
<path d="M34.2471 126.582C40.8051 122.932 50.5959 115.783 54.6715 112.665C70.418 111.45 64.2696 124.278 63.297 126.733C62.5881 128.522 46.126 142.294 39.017 142.317C31.9079 142.34 26.0496 131.143 34.2471 126.582Z" fill="#FC821E"/>
<path d="M117.069 72.5132C116.991 71.1343 118.038 69.9531 119.408 69.875L133.549 69.0685C134.919 68.9904 136.093 70.0448 136.171 71.4237L136.976 85.6549C137.054 87.0338 136.007 88.2149 134.637 88.2931L120.496 89.0996C119.126 89.1777 117.952 88.1232 117.874 86.7443L117.069 72.5132Z" fill="#48CEE0"/>
<path d="M127.069 76.6335L124.099 84.9463C124.036 85.1529 123.929 85.3194 123.777 85.4456C123.635 85.5606 123.473 85.6232 123.294 85.6335C123.008 85.6498 122.792 85.5819 122.645 85.43C122.498 85.2781 122.418 85.0849 122.405 84.8505C122.4 84.7547 122.41 84.6526 122.435 84.5442L125.848 74.7634C125.921 74.5455 126.038 74.3732 126.201 74.2463C126.374 74.1189 126.562 74.0601 126.765 74.0699C126.955 74.059 127.133 74.1077 127.299 74.2158C127.474 74.3127 127.604 74.4602 127.69 74.6584L132.125 83.7992C132.186 83.9347 132.22 84.061 132.227 84.1782C132.243 84.4658 132.161 84.7003 131.98 84.8816C131.809 85.0623 131.613 85.159 131.391 85.1716C131.2 85.1825 131.022 85.1339 130.857 85.0258C130.702 84.917 130.577 84.7639 130.48 84.5663L126.614 76.7556L127.069 76.6335ZM124.481 82.9688L125.25 81.0814L129.537 80.837L129.942 82.6573L124.481 82.9688Z" fill="white"/>
<path d="M28.5315 134.745C28.5374 133.224 29.6968 131.994 31.121 132L45.8201 132.058C47.2444 132.063 48.3941 133.302 48.3882 134.823L48.3268 150.53C48.3209 152.051 47.1615 153.281 45.7373 153.275L31.0381 153.217C29.6139 153.212 28.4642 151.973 28.4701 150.452L28.5315 134.745Z" fill="#48CEE0"/>
<path d="M38.6314 139.945L35.0315 148.89C34.9536 149.113 34.8319 149.289 34.6663 149.417C34.5118 149.534 34.3411 149.593 34.154 149.592C33.8569 149.591 33.6372 149.502 33.4949 149.325C33.3525 149.148 33.2819 148.93 33.2829 148.671C33.2833 148.566 33.3002 148.454 33.3337 148.336L37.4844 137.807C37.5734 137.572 37.7061 137.39 37.8827 137.262C38.0702 137.133 38.2685 137.081 38.4775 137.105C38.6755 137.106 38.8568 137.172 39.0213 137.301C39.1969 137.42 39.3228 137.591 39.3989 137.814L43.4186 148.164C43.473 148.318 43.5 148.459 43.4995 148.588C43.4982 148.905 43.3982 149.158 43.1994 149.345C43.0117 149.533 42.8022 149.626 42.5712 149.625C42.3731 149.624 42.1918 149.559 42.0273 149.429C41.8738 149.299 41.7534 149.122 41.6663 148.898L38.1524 140.049L38.6314 139.945ZM35.5515 146.74L36.4672 144.716L40.9233 144.733L41.229 146.763L35.5515 146.74Z" fill="white"/>
<path d="M27.8658 176.182C27.8663 174.654 29.0337 173.415 30.4732 173.416L45.3307 173.421C46.7703 173.422 47.9369 174.661 47.9364 176.19L47.9314 191.964C47.9309 193.493 46.7635 194.731 45.3239 194.731L30.4664 194.725C29.0268 194.725 27.8602 193.485 27.8607 191.957L27.8658 176.182Z" fill="#FF7C8E"/>
<path d="M43.6139 183.997C43.6136 184.882 43.4743 185.709 43.196 186.476C42.9177 187.243 42.5227 187.922 42.0109 188.512C41.5103 189.091 40.9096 189.545 40.2088 189.876C39.5192 190.206 38.7629 190.371 37.9399 190.371C37.1169 190.37 36.3607 190.205 35.6713 189.874C34.9819 189.543 34.3815 189.088 33.8701 188.51C33.3698 187.919 32.9808 187.24 32.703 186.472C32.4252 185.705 32.2864 184.878 32.2867 183.992C32.287 183.107 32.4263 182.28 32.7046 181.513C32.9828 180.745 33.3723 180.073 33.873 179.494C34.3847 178.904 34.9854 178.444 35.6751 178.113C36.3647 177.783 37.121 177.618 37.944 177.618C38.767 177.618 39.5232 177.784 40.2126 178.115C40.9132 178.446 41.5136 178.907 42.0138 179.497C42.5252 180.076 42.9198 180.749 43.1976 181.517C43.4754 182.284 43.6142 183.111 43.6139 183.997ZM41.4452 183.996C41.4455 183.205 41.2955 182.49 40.9955 181.852C40.6954 181.203 40.2841 180.689 39.7615 180.311C39.2389 179.933 38.6329 179.744 37.9433 179.744C37.2538 179.743 36.6476 179.932 36.1248 180.31C35.602 180.687 35.1903 181.195 34.8898 181.833C34.6005 182.47 34.4557 183.19 34.4554 183.993C34.4551 184.784 34.5995 185.505 34.8884 186.154C35.1885 186.792 35.5998 187.3 36.1224 187.678C36.645 188.056 37.2511 188.245 37.9406 188.245C38.6301 188.246 39.2363 188.057 39.7591 187.679C40.2819 187.302 40.6936 186.794 40.9941 186.156C41.2946 185.507 41.4449 184.787 41.4452 183.996Z" fill="white"/>
<path d="M8 176.13C8 174.601 9.16701 173.362 10.6066 173.362H25.4641C26.9037 173.362 28.0707 174.601 28.0707 176.13V191.904C28.0707 193.433 26.9037 194.672 25.4641 194.672H10.6066C9.16701 194.672 8 193.433 8 191.904L8 176.13Z" fill="#FDB651"/>
<path d="M18.6972 178.386C19.7647 178.365 20.5644 178.615 21.0963 179.136C21.6282 179.657 21.9033 180.437 21.9215 181.476C21.9312 182.031 21.812 182.523 21.5637 182.953C21.3151 183.371 20.9428 183.704 20.4465 183.95C19.9501 184.184 19.3349 184.308 18.601 184.323L18.6538 183.524C18.9985 183.518 19.3942 183.563 19.8408 183.66C20.2872 183.746 20.7184 183.915 21.1344 184.166C21.5613 184.406 21.9122 184.753 22.1871 185.208C22.473 185.652 22.6221 186.227 22.6345 186.936C22.6482 187.715 22.5371 188.355 22.3011 188.855C22.0763 189.356 21.7717 189.746 21.3873 190.025C21.0028 190.304 20.5892 190.501 20.1462 190.616C19.7031 190.72 19.2758 190.775 18.8644 190.783L14.7113 190.865C14.4222 190.871 14.1758 190.776 13.9721 190.579C13.7794 190.37 13.6803 190.112 13.6749 189.805L13.4956 179.57C13.4902 179.263 13.5802 179.007 13.7658 178.803C13.9622 178.586 14.2049 178.475 14.4941 178.469L18.6972 178.386ZM18.4336 180.482L15.4647 180.54L15.6766 180.253L15.7327 183.458L15.5298 183.303L18.5321 183.243C18.8545 183.237 19.1417 183.119 19.3935 182.89C19.6453 182.66 19.7675 182.333 19.76 181.908C19.7511 181.401 19.6224 181.037 19.3739 180.818C19.1362 180.586 18.8228 180.474 18.4336 180.482ZM18.6521 185.331L15.6165 185.391L15.7641 185.247L15.8296 188.983L15.6597 188.809L18.8287 188.747C19.3402 188.737 19.7436 188.587 20.0389 188.298C20.3339 187.997 20.4764 187.557 20.4662 186.978C20.4569 186.447 20.3501 186.065 20.1458 185.833C19.9416 185.601 19.6999 185.458 19.4209 185.405C19.1419 185.351 18.8856 185.327 18.6521 185.331Z" fill="white"/>
<path d="M47.9293 176.458C47.9293 174.929 49.0963 173.69 50.5359 173.69H65.3934C66.833 173.69 68 174.929 68 176.458V192.233C68 193.761 66.833 195 65.3934 195H50.5359C49.0963 195 47.9293 193.761 47.9293 192.233V176.458Z" fill="#868BFF"/>
<path d="M64.2843 187.227C64.2843 187.557 64.1898 187.852 64.0007 188.112C63.8005 188.372 63.5559 188.502 63.2667 188.502H53.6244C53.3353 188.502 53.0962 188.401 52.9071 188.201C52.7069 187.988 52.6068 187.728 52.6068 187.421V182.32C52.6068 181.706 52.7625 181.134 53.0739 180.602C53.3742 180.059 53.7968 179.622 54.3418 179.292C54.8756 178.961 55.4928 178.796 56.1935 178.796C56.6161 178.796 57.0276 178.89 57.428 179.079C57.8283 179.256 58.1898 179.504 58.5123 179.823C58.8348 180.13 59.0851 180.478 59.263 180.868L58.8793 180.85C59.0461 180.52 59.2463 180.248 59.4799 180.036C59.7023 179.811 59.947 179.64 60.2139 179.522C60.4697 179.392 60.7477 179.315 61.048 179.292C61.326 179.244 61.5707 179.215 61.782 179.203C61.9933 179.179 62.1712 179.144 62.3158 179.097C62.4604 179.038 62.5716 178.931 62.6495 178.778C62.794 178.518 63.0054 178.359 63.2834 178.3C63.5503 178.229 63.7894 178.294 64.0007 178.495C64.1453 178.624 64.2398 178.79 64.2843 178.991C64.3177 179.191 64.3177 179.392 64.2843 179.593C64.2398 179.793 64.1842 179.959 64.1175 180.089C64.0063 180.289 63.845 180.49 63.6337 180.691C63.4113 180.892 63.1166 181.057 62.7496 181.187C62.3826 181.305 61.9099 181.364 61.3316 181.364C61.1425 181.364 60.9701 181.399 60.8144 181.47C60.6476 181.541 60.5086 181.641 60.3974 181.771C60.275 181.901 60.1861 182.066 60.1305 182.267C60.0637 182.468 60.0304 182.704 60.0304 182.976V186.554L59.6467 186.288H63.2667C63.5559 186.288 63.8005 186.37 64.0007 186.536C64.1898 186.701 64.2843 186.931 64.2843 187.227ZM58.3121 186.536V182.409C58.3121 182.196 58.2231 181.99 58.0452 181.789C57.8561 181.588 57.6059 181.423 57.2945 181.293C56.972 181.163 56.6217 181.098 56.2435 181.098C55.7542 181.098 55.3483 181.24 55.0257 181.523C54.6921 181.795 54.5253 182.09 54.5253 182.409V186.5L53.9914 186.288H58.7125L58.3121 186.536Z" fill="white"/>
<path d="M38.9586 156.092C38.9623 154.564 40.1324 153.328 41.5719 153.332L56.4294 153.373C57.869 153.377 59.0329 154.619 59.0292 156.147L58.9906 171.922C58.9869 173.45 57.8169 174.686 56.3773 174.682L41.5198 174.641C40.0802 174.637 38.9163 173.395 38.92 171.867L38.9586 156.092Z" fill="#ACDE5F"/>
<path d="M53.1816 158.34C53.4704 158.495 53.6366 158.737 53.6803 159.068C53.7351 159.399 53.6565 159.7 53.4445 159.971C53.2994 160.183 53.1101 160.3 52.8765 160.323C52.654 160.346 52.4261 160.299 52.1929 160.18C51.9263 160.049 51.6429 159.948 51.3428 159.876C51.0538 159.805 50.7481 159.768 50.4256 159.768C49.825 159.766 49.2854 159.865 48.8067 160.064C48.3391 160.264 47.938 160.552 47.6034 160.929C47.2689 161.294 47.012 161.73 46.8329 162.237C46.6648 162.745 46.58 163.305 46.5785 163.919C46.5768 164.64 46.6698 165.266 46.8575 165.797C47.0564 166.329 47.3278 166.773 47.6717 167.128C48.0156 167.483 48.4209 167.75 48.8875 167.928C49.3542 168.095 49.86 168.179 50.405 168.181C50.7053 168.181 51.0056 168.153 51.306 168.095C51.6065 168.036 51.8959 167.931 52.1743 167.778C52.4081 167.661 52.6362 167.62 52.8586 167.656C53.092 167.692 53.2863 167.817 53.4415 168.03C53.6632 168.325 53.7403 168.633 53.6728 168.951C53.6165 169.258 53.4491 169.482 53.1707 169.623C52.8812 169.776 52.5806 169.905 52.2689 170.01C51.9684 170.104 51.6624 170.174 51.3509 170.22C51.0393 170.278 50.7223 170.307 50.3998 170.306C49.5991 170.304 48.8376 170.166 48.1153 169.892C47.4042 169.619 46.7657 169.216 46.1999 168.683C45.6451 168.15 45.2074 167.487 44.8868 166.695C44.5663 165.892 44.4073 164.964 44.4098 163.913C44.4121 163.004 44.5587 162.166 44.8497 161.399C45.1519 160.633 45.5706 159.973 46.1057 159.419C46.6521 158.854 47.2926 158.419 48.0274 158.114C48.7622 157.797 49.5633 157.64 50.4308 157.642C50.9201 157.643 51.3982 157.704 51.865 157.823C52.3318 157.943 52.7707 158.115 53.1816 158.34Z" fill="white"/>
<path d="M18.1403 155.708C18.1552 154.179 19.3342 152.953 20.7737 152.969L35.6305 153.132C37.07 153.148 38.2248 154.4 38.2099 155.928L38.056 171.702C38.0411 173.231 36.862 174.457 35.4225 174.441L20.5658 174.278C19.1263 174.262 17.9715 173.01 17.9864 171.482L18.1403 155.708Z" fill="#E88FFD"/>
<path d="M31.9642 157.42C32.22 157.423 32.447 157.532 32.6451 157.746C32.8544 157.949 32.9575 158.21 32.9544 158.529C32.9534 158.635 32.9356 158.747 32.9011 158.865C32.8778 158.971 32.8323 159.077 32.7645 159.182L28.9217 164.897L29.2339 163.678L29.1843 168.761C29.1813 169.068 29.0787 169.327 28.8764 169.537C28.6854 169.736 28.462 169.834 28.2062 169.831C27.9282 169.828 27.6901 169.725 27.4919 169.522C27.3049 169.307 27.2129 169.046 27.2159 168.739L27.2641 163.798L27.392 164.366L23.8385 159.244C23.7288 159.089 23.6524 158.941 23.6093 158.798C23.5662 158.656 23.5452 158.526 23.5464 158.408C23.5495 158.089 23.6688 157.831 23.9043 157.633C24.1398 157.434 24.3798 157.337 24.6245 157.339C24.9359 157.343 25.2067 157.511 25.437 157.844L28.594 162.573L28.1277 162.497L31.125 157.942C31.362 157.591 31.6417 157.417 31.9642 157.42Z" fill="white"/>
<path d="M110 162.766C110 160.686 111.628 159 113.636 159L134.364 159C136.372 159 138 160.686 138 162.766V184.234C138 186.314 136.372 188 134.364 188H113.636C111.628 188 110 186.314 110 184.234L110 162.766Z" fill="#FDB651"/>
<path d="M124.923 165.837C126.413 165.809 127.528 166.149 128.27 166.858C129.012 167.567 129.396 168.628 129.421 170.042C129.435 170.797 129.269 171.467 128.922 172.053C128.576 172.622 128.056 173.074 127.364 173.408C126.671 173.727 125.813 173.896 124.789 173.916L124.863 172.83C125.344 172.821 125.896 172.882 126.519 173.015C127.142 173.132 127.743 173.361 128.323 173.703C128.919 174.029 129.409 174.502 129.792 175.122C130.191 175.725 130.399 176.508 130.416 177.472C130.435 178.533 130.28 179.403 129.951 180.085C129.637 180.766 129.212 181.296 128.676 181.676C128.14 182.056 127.563 182.325 126.945 182.481C126.327 182.622 125.731 182.697 125.157 182.709L119.363 182.82C118.959 182.828 118.616 182.698 118.332 182.43C118.063 182.146 117.924 181.795 117.917 181.377L117.667 167.448C117.659 167.03 117.785 166.682 118.044 166.404C118.318 166.109 118.656 165.958 119.06 165.95L124.923 165.837ZM124.556 168.689L120.414 168.769L120.709 168.378L120.788 172.74L120.505 172.528L124.693 172.447C125.143 172.439 125.543 172.278 125.895 171.966C126.246 171.654 126.416 171.209 126.406 170.63C126.394 169.94 126.214 169.445 125.867 169.146C125.536 168.831 125.099 168.679 124.556 168.689ZM124.86 175.289L120.625 175.371L120.831 175.174L120.923 180.259L120.686 180.022L125.107 179.937C125.82 179.923 126.383 179.72 126.795 179.326C127.207 178.916 127.405 178.318 127.391 177.53C127.378 176.807 127.229 176.288 126.944 175.972C126.659 175.656 126.322 175.462 125.933 175.389C125.544 175.316 125.186 175.283 124.86 175.289Z" fill="white"/>
<path d="M0 49.9999C6.26783 50.5705 13 44.9999 13.5 45.9999C14 46.9999 27 49.9999 27 49.9999V65.9999H0V49.9999Z" fill="#C2A6FB"/>
<path d="M0 162H36C42.6274 162 48 167.373 48 174V199H12C5.37258 199 0 193.627 0 187V162Z" fill="white"/>
<path fill-rule="evenodd" clip-rule="evenodd" d="M132.151 39C132.052 39.4718 132 39.9568 132 40.4516C132 45.1727 136.701 49 142.5 49C148.299 49 153 45.1727 153 40.4516C153 39.9568 152.948 39.4718 152.849 39H132.151Z" fill="#8464D4"/>
<path d="M143.478 40.6101C142.835 41.256 142.139 40.9561 141.871 40.7254C141.714 39.6874 141.335 36.7578 141.067 33.3437C140.799 29.9296 141.402 27.692 141.737 27L142.139 27.4614C142.353 27.6459 142.942 27.5383 143.21 27.4614C144.068 27.6459 144.059 30.8447 143.947 32.421L143.478 40.6101Z" fill="#8464D4" stroke="#8464D4"/>
<path d="M146.227 39.6028C145.558 39.9006 144.983 39.5157 144.78 39.286C144.797 38.5124 144.902 36.3445 145.18 33.8613C145.457 31.378 146.331 29.9434 146.733 29.5365L147.021 29.9627C147.184 30.1465 147.724 30.2164 147.974 30.2283C148.709 30.5714 148.218 32.8336 147.881 33.9218L146.227 39.6028Z" fill="#8464D4" stroke="#8464D4"/>
<path d="M139.618 41.1721C140.287 41.47 140.861 41.0851 141.065 40.8554C141.047 40.0818 140.942 37.9138 140.665 35.4306C140.388 32.9474 139.514 31.5128 139.111 31.1059L138.824 31.5321C138.661 31.7158 138.12 31.7857 137.87 31.7977C137.136 32.1408 137.627 34.403 137.964 35.4912L139.618 41.1721Z" fill="#8464D4" stroke="#8464D4"/>
</svg>
