<svg width="165" height="201" viewBox="0 0 165 201" fill="none" xmlns="http://www.w3.org/2000/svg">
<rect width="165" height="198" rx="14" fill="#7EC6FF"/>
<path d="M0 169H165V186C165 194.284 158.284 201 150 201H15C6.71572 201 0 194.284 0 186V169Z" fill="#018BEE"/>
<path d="M136.5 154C136.5 152.067 138.067 150.5 140 150.5H163.5V167.5H140C138.067 167.5 136.5 165.933 136.5 164V154Z" fill="#A9DBFF" stroke="#5ABAFF" stroke-width="3"/>
<path d="M144.5 136C144.5 134.067 146.067 132.5 148 132.5H163.5V149.5H148C146.067 149.5 144.5 147.933 144.5 146V136Z" fill="#128FE8" stroke="#5ABAFF" stroke-width="3"/>
<path d="M9.59336 168.875H0.125V127.125L0.232652 127.125L0.868566 127.125L2.97794 127.125L7.94118 127.125L12.4632 127.125L14.2693 127.125L14.8053 127.125L14.8539 127.125L12.2294 143.867L12.2293 143.867L12.2286 143.873L9.59336 168.875Z" fill="#006DB5" stroke="#0271BA" stroke-width="0.25"/>
<path d="M0 17C0 9.26801 6.26801 3 14 3H34V53H0V17Z" fill="#2F9BF8"/>
<rect x="36" y="3" width="34" height="50" fill="#2F9BF8"/>
<rect y="55" width="34" height="50" fill="#2F9BF8"/>
<rect x="36" y="55" width="34" height="50" fill="#2F9BF8"/>
<path opacity="0.52" fill-rule="evenodd" clip-rule="evenodd" d="M14.5 38C24.165 38 32 29.6901 32 19.4394C32 12.302 28.2015 6.10557 22.6317 3H14C6.26801 3 0 9.26801 0 17V29.8345C3.14632 34.7617 8.4666 38 14.5 38Z" fill="#86C7FF"/>
<rect y="101" width="69" height="4" fill="#008DEA"/>
<path d="M119.057 97.19C116.37 108.386 104.13 111.931 98.3454 112.304C90.5085 111.744 94.427 102.228 101.144 100.549C106.518 99.2054 108.608 95.5108 108.981 93.2717C109.541 86.5542 112.9 86.5541 114.579 86.5542C117.938 86.5543 120.804 89.913 119.057 97.19Z" fill="#61A400"/>
<path d="M110.302 124.217C111.198 115.708 103.958 113.208 100.226 113.021L93.5085 128.136C98.7331 130.375 109.406 132.726 110.302 124.217Z" fill="#61A400"/>
<path d="M100.786 81.1141C113.101 88.951 106.384 102.946 100.786 105.185V120.299C100.786 151.646 49.8456 129.815 48.1663 120.299C46.8228 112.686 53.9507 111.156 57.6825 111.342V102.386C55.8166 102.199 52.0847 99.5869 52.0847 92.3097C52.0847 83.3532 58.8021 79.6213 62.1608 78.875V73.8369C62.1608 68.2391 65.5195 66 70.5575 66C76.3792 66 77.0883 71.2246 76.7151 73.8369H86.7912C87.3509 69.3587 87.9107 66 94.6281 66C100.002 66 100.972 71.5978 100.786 73.8369V81.1141Z" fill="#79CB00"/>
<rect width="27.989" height="26.8695" rx="10.5" transform="matrix(-1 0 0 1 96.8672 104.625)" fill="#B3FF38"/>
<ellipse cx="5.03803" cy="5.03803" rx="5.03803" ry="5.03803" transform="matrix(-1 0 0 1 103.585 84.4727)" fill="#9BE030"/>
<ellipse cx="5.03803" cy="5.03803" rx="5.03803" ry="5.03803" transform="matrix(-1 0 0 1 66.639 84.4727)" fill="#9BE030"/>
<path d="M76.1552 85.5923H87.9106C87.9106 87.8314 87.9106 91.7499 81.7531 91.7499C75.5955 91.7499 76.5284 87.6448 76.1552 85.5923Z" fill="white"/>
<path d="M73.5978 78.8152L70.6816 77L68 78.8152" stroke="#3C3C3C" stroke-width="3" stroke-linecap="round"/>
<ellipse cx="2.7989" cy="3.91847" rx="2.7989" ry="3.91847" transform="matrix(-1 0 0 1 95.7477 74.3967)" fill="#3C3C3C"/>
<path d="M38 119H124.5L119.005 170H43.8224L38 119Z" fill="#067FD0"/>
<ellipse cx="82.5" cy="142" rx="6.5" ry="4" fill="#A7D8FF"/>
<rect x="40" y="165" width="83" height="5" rx="1" fill="#0271BA"/>
<path d="M116 61C116 59.3431 117.343 58 119 58H165V68H119C117.343 68 116 66.6569 116 65V61Z" fill="#459AE3"/>
<path d="M160 29C160 27.8954 160.895 27 162 27H165V59H162C160.895 59 160 58.1046 160 57V29Z" fill="#4293D9"/>
<path d="M153.053 34.4801C153.194 33.3846 154.197 32.6114 155.293 32.753L160.003 33.3618L156.798 58.1555L152.088 57.5467C150.992 57.4051 150.219 56.4023 150.361 55.3068L153.053 34.4801Z" fill="#B1DBFF"/>
<path opacity="0.32" d="M10.5 75L18.7272 101.25H2.27276L10.5 75Z" fill="#3283C8"/>
<path opacity="0.32" d="M47.5 85L52.2631 100.75H42.7369L47.5 85Z" fill="#3283C8"/>
<path opacity="0.32" d="M25.5 65L33.7272 101H17.2728L25.5 65Z" fill="#3283C8"/>
<path d="M0 164H36C42.6274 164 48 169.373 48 176V201H12C5.37258 201 0 195.627 0 189V164Z" fill="white"/>
</svg>
