<svg width="166" height="199" viewBox="0 0 166 199" fill="none" xmlns="http://www.w3.org/2000/svg">
<rect x="1" width="165" height="198" rx="14" fill="url(#paint0_linear_899_58)"/>
<path d="M26.3809 134.673C28.4688 146.96 19.1312 147.924 14.1145 147.603C1.5871 147.603 0.311162 138.983 1.23912 134.673C1.23912 123.082 3.588 99.722 12.9835 99.0153C22.3791 98.3086 25.163 122.225 26.3809 134.673Z" fill="#FBD992"/>
<path d="M13.8534 153.064V109.295" stroke="#CE9655" stroke-width="2.37674" stroke-linecap="round"/>
<path d="M14.0275 124.715C15.9994 124.447 19.8562 122.45 19.5082 116.603" stroke="#CE9655" stroke-width="2.37674" stroke-linecap="round"/>
<path d="M9.24261 112.267C8.95262 113.953 9.48619 117.294 13.9404 117.166" stroke="#CE9655" stroke-width="2.37674" stroke-linecap="round"/>
<path d="M13.9405 134.191C11.5047 134.486 6.25012 133.035 4.71899 124.875" stroke="#CE9655" stroke-width="2.37674" stroke-linecap="round"/>
<path d="M162.423 119.57C165.09 135.267 153.162 136.498 146.753 136.088C130.75 136.088 129.12 125.076 130.305 119.57C130.305 104.763 133.306 74.9224 145.308 74.0196C157.311 73.1168 160.867 103.669 162.423 119.57Z" fill="#FBD992"/>
<path d="M146.42 143.064V87.1514" stroke="#CE9655" stroke-width="2.37674" stroke-linecap="round"/>
<path d="M146.642 106.849C149.161 106.507 154.088 103.956 153.643 96.4873" stroke="#CE9655" stroke-width="2.37674" stroke-linecap="round"/>
<path d="M140.53 90.9473C140.159 93.1017 140.841 97.3695 146.531 97.2054" stroke="#CE9655" stroke-width="2.37674" stroke-linecap="round"/>
<path d="M146.531 118.955C143.419 119.331 136.707 117.478 134.751 107.054" stroke="#CE9655" stroke-width="2.37674" stroke-linecap="round"/>
<path d="M57.7865 128.088C60.4836 143.619 48.4216 144.837 41.941 144.431C25.7584 144.431 24.1102 133.536 25.3089 128.088C25.3089 113.437 28.3431 83.9126 40.4801 83.0194C52.6171 82.1261 56.2132 112.355 57.7865 128.088Z" fill="#FFAD92"/>
<path d="M41.6507 148L41.6465 100.68" stroke="#D37E68" stroke-width="3" stroke-linecap="round"/>
<path d="M33.8541 109.52C33.4795 111.652 35.9625 116.522 41.7163 116.36" stroke="#D37E68" stroke-width="3" stroke-linecap="round"/>
<path d="M41.6465 127.67C45.1752 128.096 52.787 125.998 55.005 114.2" stroke="#D37E68" stroke-width="3" stroke-linecap="round"/>
<path d="M0 147C74.6557 137.644 118 118.5 166 147V182C166 191.389 158.389 199 149 199H17C7.61116 199 0 191.389 0 182V147Z" fill="#EF9D27"/>
<g opacity="0.8" filter="url(#filter0_f_899_58)">
<ellipse cx="82.5" cy="184.5" rx="29.5" ry="7.5" fill="#AF8650" fill-opacity="0.8"/>
</g>
<ellipse cx="7.7011" cy="11.6317" rx="7.7011" ry="11.6317" transform="matrix(0.975558 -0.219743 0.235584 0.971854 117.474 78.7424)" fill="#730E97"/>
<path d="M70.2249 174.066V167.988C70.2249 159.251 95.051 163.809 92.6866 170.267C90.3222 176.725 85.1994 181.283 77.7121 180.523C71.7223 179.916 70.2249 175.965 70.2249 174.066Z" fill="#D02F90"/>
<path d="M121.847 147.475L119.877 145.956C115.779 135.016 121.585 126.203 125 123.164C125.394 123.037 127.205 124.094 129.729 130.001C132.487 136.459 133.275 139.118 129.729 144.816C126.891 149.374 123.292 148.488 121.847 147.475Z" fill="#D02F90"/>
<path d="M38.6995 144.816C39.33 140.258 48.4198 138.612 52.8858 137.979C63.2892 141.625 60.3731 152.667 57.6146 157.732C56.6951 157.732 53.2011 158.111 46.5808 158.111C38.3054 158.111 37.9113 150.514 38.6995 144.816Z" fill="#EC4CAD"/>
<path d="M93.4168 50.5268C94.443 54.0289 97.0212 63.5254 97.0212 72.2623C103.474 72.6902 116.268 77.1354 116.724 75.6811C117.295 73.8633 115.936 56.3081 111.208 47.1913C106.479 38.0746 100.994 38.6882 97.8093 39.2142C94.6248 39.7401 91.1308 42.7258 93.4168 50.5268Z" fill="#EC4CAD"/>
<path d="M96.6272 52.1298C98.9916 58.5875 102.144 68.084 99.3856 74.5417C103.494 74.3237 108.293 74.2909 112.784 74.1619C113.245 72.3154 112.654 59.836 108.449 49.0909C107.194 45.8836 103.716 42.3116 100.568 43.0131C97.4199 43.7145 95.4449 45.2923 96.6272 52.1298Z" fill="#FFC5DC"/>
<path d="M61.9494 50.2304C66.363 56.3082 72.3265 68.717 74.9536 74.9215C81.2587 73.5286 93.8688 70.3631 93.8688 68.8437C93.8688 66.9444 86.7756 51.7498 80.0765 42.2533C74.7172 34.656 67.9918 35.5424 65.1019 36.9352C62.2121 38.328 58.7969 44.1526 61.9494 50.2304Z" fill="#EC4CAD"/>
<path d="M66.2841 50.6103C70.6977 56.6881 75.479 65.6782 78.1061 71.8826C82.0467 70.743 85.1993 69.6034 89.534 68.4639C89.534 66.5645 84.0171 54.029 77.318 44.5325C75.3184 41.6979 71.1443 38.9612 68.2545 40.3541C65.3646 41.7469 63.1316 44.5325 66.2841 50.6103Z" fill="#FFC5DC"/>
<path d="M89.9282 171.027C71.6436 172.546 59.7165 162.796 56.0386 157.732C53.2801 154.693 48.5513 147.095 53.2801 137.599C59.9004 128.482 62.869 106.45 63.5258 96.5737C65.1021 82.5188 69.0427 68.084 100.962 68.084C138.004 73.4021 126.97 118.226 125.788 129.622C124.606 141.018 112.784 169.127 89.9282 171.027Z" fill="#EC4CAD"/>
<path d="M28.8479 128.482C33.483 135.7 50.5216 131.394 57.6147 128.482C71.013 123.544 77.318 120.125 76.924 111.008C76.5299 101.892 68.6486 100.372 62.7376 104.551C58.6826 107.417 48.5512 109.362 41.8521 111.008C29.6361 112.908 23.725 120.505 28.8479 128.482Z" fill="#EC4CAD"/>
<path d="M73.3774 141.777C77.791 132.66 89.4028 129.622 94.657 129.242C99.7798 128.988 111.016 132.661 113.178 141.777C116.331 155.072 106.873 164.569 92.6867 165.709C78.7415 166.829 67.8605 153.173 73.3774 141.777Z" fill="#FFA6C9"/>
<path d="M94.2629 150.514L97.8095 157.352" stroke="#FF3888" stroke-width="3.5" stroke-linecap="round"/>
<path d="M92.6865 155.452L99.7797 152.793" stroke="#FF3888" stroke-width="3.5" stroke-linecap="round"/>
<path d="M80.8645 97.7133C81.1798 91.0277 87.4323 88.0901 90.7162 87.457C90.7162 84.4181 90.3221 82.8986 89.928 81.759C93.0806 82.3668 94.9195 85.8109 95.445 87.457C98.5975 88.0901 105.297 88.9764 108.843 89.3563C115.148 90.0316 123.03 92.3952 122.636 102.272C122.32 110.173 115.936 112.655 113.178 112.908C106.085 112.908 90.2433 110.781 88.3518 109.869C85.9874 108.729 80.4705 106.07 80.8645 97.7133Z" fill="#FFA6C9"/>
<ellipse cx="115.937" cy="100.372" rx="2.36439" ry="3.79863" fill="#750F4C"/>
<path d="M110.42 103.411H100.174C100.568 106.83 103.72 107.21 106.479 107.21C109.656 107.21 110.42 104.931 110.42 103.411Z" fill="white"/>
<path d="M91.8984 94.6743C93.3433 95.1808 96.3907 96.5736 97.0212 98.0931C95.1297 98.0931 92.0297 98.0931 90.7162 98.0931" stroke="#750F4C" stroke-width="2" stroke-linecap="round"/>
<path fill-rule="evenodd" clip-rule="evenodd" d="M130.05 83.2152C130.027 83.4176 130 83.6191 129.97 83.8197L125.246 83.3139C125.277 83.1135 125.304 82.9121 125.328 82.7096C126.687 70.9108 114.574 59.9311 98.2723 58.1858C81.9707 56.4405 67.6536 64.5905 66.2941 76.3893C65.7017 81.531 67.6678 86.5171 71.424 90.6512L70.8524 95.6119C64.3713 90.3157 60.7241 83.2371 61.5713 75.8837C63.1512 62.1716 79.7614 52.6969 98.6713 54.7215C117.581 56.746 131.63 69.5031 130.05 83.2152Z" fill="#730E97"/>
<ellipse cx="63.3638" cy="91.347" rx="13.3972" ry="18.449" fill="#730E97"/>
<path d="M142 157V156H146V157H142Z" fill="#FFE787"/>
<path d="M142 159V157H146V159H142Z" fill="#FFE787"/>
<path d="M150.966 156H146.225H141.944H137.05C136.744 154.051 137.692 150.123 143.931 150.003C150.17 149.883 151.221 153.951 150.966 156Z" fill="#BD2C08"/>
<path d="M139.162 156C140.797 153.549 139.065 152.629 137.995 152.476C136.827 153.702 136.924 155.336 137.119 156H139.162Z" fill="#FFE787"/>
<path d="M142.519 152.342C140.768 151.975 140.33 151.084 140.184 150.573C142.052 149.715 144.027 150.007 145 150.262C144.766 152.346 142.957 152.434 142.519 152.342Z" fill="#FFE787"/>
<path d="M139.162 156C140.797 153.549 139.065 152.629 137.995 152.476C136.827 153.702 136.924 155.336 137.119 156H139.162Z" stroke="black"/>
<path d="M142.519 152.342C140.768 151.975 140.33 151.084 140.184 150.573C142.052 149.715 144.027 150.007 145 150.262C144.766 152.346 142.957 152.434 142.519 152.342Z" stroke="black"/>
<path d="M143 156C143.872 154.491 146.292 152.378 149 156H143Z" fill="#FFE787"/>
<path d="M152.778 167.889V167.333H155V167.889H152.778Z" fill="#FFE787"/>
<path d="M152.778 169V167.889H155V169H152.778Z" fill="#FFE787"/>
<path d="M157.759 167.333H155.125H152.746H150.028C149.858 166.25 150.385 164.068 153.851 164.001C157.317 163.935 157.9 166.195 157.759 167.333Z" fill="#BD2C08"/>
<path d="M151.201 167.333C152.109 165.971 151.147 165.461 150.553 165.376C149.904 166.057 149.958 166.964 150.066 167.333H151.201Z" fill="#FFE787"/>
<path d="M153.066 165.301C152.093 165.097 151.85 164.602 151.769 164.318C152.807 163.842 153.904 164.004 154.444 164.146C154.315 165.303 153.309 165.352 153.066 165.301Z" fill="#FFE787"/>
<path d="M151.201 167.333C152.109 165.971 151.147 165.461 150.553 165.376C149.904 166.057 149.958 166.964 150.066 167.333H151.201Z" stroke="black"/>
<path d="M153.066 165.301C152.093 165.097 151.85 164.602 151.769 164.318C152.807 163.842 153.904 164.004 154.444 164.146C154.315 165.303 153.309 165.352 153.066 165.301Z" stroke="black"/>
<path d="M153.333 167.333C153.818 166.495 155.162 165.321 156.667 167.333H153.333Z" fill="#FFE787"/>
<path d="M133 175.445V174.667H129.889V175.445H133Z" fill="#FFE787"/>
<path d="M133 177V175.444H129.889V177H133Z" fill="#FFE787"/>
<path d="M126.027 174.667H129.714H133.044H136.85C137.088 173.151 136.35 170.095 131.498 170.002C126.645 169.909 125.829 173.073 126.027 174.667Z" fill="#BD2C08"/>
<path d="M135.207 174.667C133.936 172.76 135.283 172.045 136.115 171.926C137.023 172.879 136.948 174.15 136.796 174.667H135.207Z" fill="#FFE787"/>
<path d="M132.596 171.822C133.959 171.536 134.299 170.843 134.413 170.446C132.96 169.778 131.423 170.005 130.667 170.204C130.848 171.824 132.256 171.893 132.596 171.822Z" fill="#FFE787"/>
<path d="M135.207 174.667C133.936 172.76 135.283 172.045 136.115 171.926C137.023 172.879 136.948 174.15 136.796 174.667H135.207Z" stroke="black"/>
<path d="M132.596 171.822C133.959 171.536 134.299 170.843 134.413 170.446C132.96 169.778 131.423 170.005 130.667 170.204C130.848 171.824 132.256 171.893 132.596 171.822Z" stroke="black"/>
<path d="M132.222 174.667C131.544 173.493 129.662 171.849 127.556 174.667H132.222Z" fill="#FFE787"/>
<path d="M1.02461 155.007C0.720569 158.207 3.30501 160.099 4.82522 160.826C5.20528 160.947 7.02954 161.226 9.00582 160.644C12.0463 158.898 13.5664 155.189 12.8063 155.007C12.0462 154.825 11.096 156.037 10.716 156.462L11.4761 154.461C12.3882 152.716 12.9963 150.824 12.0462 150.642C11.0961 150.461 9.70252 153.128 9.38581 154.279C9.70252 151.976 9.95582 147.187 8.81572 147.005C7.67563 146.824 7.04214 151.249 6.91545 153.552C6.5354 151.734 5.96525 148.278 4.82515 148.278C3.68506 148.278 4.82515 155.189 4.63513 154.279C4.48311 153.552 2.92488 150.279 2.35487 151.006C1.78486 151.733 2.60817 154.946 2.73486 155.734C1.51868 154.57 1.08796 154.764 1.02461 155.007Z" fill="#FFE787"/>
<path d="M1.02461 155.007C0.720569 158.207 3.30501 160.099 4.82522 160.826C5.20528 160.947 7.02954 161.226 9.00582 160.644C12.0463 158.898 13.5664 155.189 12.8063 155.007C12.0462 154.825 11.096 156.037 10.716 156.462L11.4761 154.461C12.3882 152.716 12.9963 150.824 12.0462 150.642C11.0961 150.461 9.70252 153.128 9.38581 154.279C9.70252 151.976 9.95582 147.187 8.81572 147.005C7.67563 146.824 7.04214 151.249 6.91545 153.552C6.5354 151.734 5.96525 148.278 4.82515 148.278C3.68506 148.278 4.82515 155.189 4.63513 154.279C4.48311 153.552 2.92488 150.279 2.35487 151.006C1.78486 151.733 2.60817 154.946 2.73486 155.734C1.51868 154.57 1.08796 154.764 1.02461 155.007Z" stroke="#FFE787" stroke-width="0.5"/>
<path d="M1.02461 155.007C0.720569 158.207 3.30501 160.099 4.82522 160.826C5.20528 160.947 7.02954 161.226 9.00582 160.644C12.0463 158.898 13.5664 155.189 12.8063 155.007C12.0462 154.825 11.096 156.037 10.716 156.462L11.4761 154.461C12.3882 152.716 12.9963 150.824 12.0462 150.642C11.0961 150.461 9.70252 153.128 9.38581 154.279C9.70252 151.976 9.95582 147.187 8.81572 147.005C7.67563 146.824 7.04214 151.249 6.91545 153.552C6.5354 151.734 5.96525 148.278 4.82515 148.278C3.68506 148.278 4.82515 155.189 4.63513 154.279C4.48311 153.552 2.92488 150.279 2.35487 151.006C1.78486 151.733 2.60817 154.946 2.73486 155.734C1.51868 154.57 1.08796 154.764 1.02461 155.007Z" stroke="black" stroke-opacity="0.09" stroke-width="0.5"/>
<path d="M2 157L5.5625 161M3.6875 155.364L5.75 160.273M5.375 153.727L6.3125 159.909M8.1875 153L7.25 159.909M9.875 155.364L7.625 160.091M11 157.909L8.1875 160.636" stroke="#FFE787" stroke-width="0.8"/>
<path d="M2 157L5.5625 161M3.6875 155.364L5.75 160.273M5.375 153.727L6.3125 159.909M8.1875 153L7.25 159.909M9.875 155.364L7.625 160.091M11 157.909L8.1875 160.636" stroke="black" stroke-opacity="0.09" stroke-width="0.8"/>
<path d="M7.02461 160.007C6.72057 163.207 9.30501 165.099 10.8252 165.826C11.2053 165.947 13.0295 166.226 15.0058 165.644C18.0463 163.898 19.5664 160.189 18.8063 160.007C18.0462 159.825 17.096 161.037 16.716 161.462L17.4761 159.461C18.3882 157.716 18.9963 155.824 18.0462 155.642C17.0961 155.461 15.7025 158.128 15.3858 159.279C15.7025 156.976 15.9558 152.187 14.8157 152.005C13.6756 151.824 13.0421 156.249 12.9155 158.552C12.5354 156.734 11.9652 153.278 10.8252 153.278C9.68506 153.278 10.8252 160.189 10.6351 159.279C10.4831 158.552 8.92488 155.279 8.35487 156.006C7.78486 156.733 8.60817 159.946 8.73486 160.734C7.51868 159.57 7.08796 159.764 7.02461 160.007Z" fill="#FFE787"/>
<path d="M7.02461 160.007C6.72057 163.207 9.30501 165.099 10.8252 165.826C11.2053 165.947 13.0295 166.226 15.0058 165.644C18.0463 163.898 19.5664 160.189 18.8063 160.007C18.0462 159.825 17.096 161.037 16.716 161.462L17.4761 159.461C18.3882 157.716 18.9963 155.824 18.0462 155.642C17.0961 155.461 15.7025 158.128 15.3858 159.279C15.7025 156.976 15.9558 152.187 14.8157 152.005C13.6756 151.824 13.0421 156.249 12.9155 158.552C12.5354 156.734 11.9652 153.278 10.8252 153.278C9.68506 153.278 10.8252 160.189 10.6351 159.279C10.4831 158.552 8.92488 155.279 8.35487 156.006C7.78486 156.733 8.60817 159.946 8.73486 160.734C7.51868 159.57 7.08796 159.764 7.02461 160.007Z" stroke="#FFE787" stroke-width="0.5"/>
<path d="M7.02461 160.007C6.72057 163.207 9.30501 165.099 10.8252 165.826C11.2053 165.947 13.0295 166.226 15.0058 165.644C18.0463 163.898 19.5664 160.189 18.8063 160.007C18.0462 159.825 17.096 161.037 16.716 161.462L17.4761 159.461C18.3882 157.716 18.9963 155.824 18.0462 155.642C17.0961 155.461 15.7025 158.128 15.3858 159.279C15.7025 156.976 15.9558 152.187 14.8157 152.005C13.6756 151.824 13.0421 156.249 12.9155 158.552C12.5354 156.734 11.9652 153.278 10.8252 153.278C9.68506 153.278 10.8252 160.189 10.6351 159.279C10.4831 158.552 8.92488 155.279 8.35487 156.006C7.78486 156.733 8.60817 159.946 8.73486 160.734C7.51868 159.57 7.08796 159.764 7.02461 160.007Z" stroke="black" stroke-opacity="0.09" stroke-width="0.5"/>
<path d="M8 162L11.5625 166M9.6875 160.364L11.75 165.273M11.375 158.727L12.3125 164.909M14.1875 158L13.25 164.909M15.875 160.364L13.625 165.091M17 162.909L14.1875 165.636" stroke="#FFE787" stroke-width="0.8"/>
<path d="M8 162L11.5625 166M9.6875 160.364L11.75 165.273M11.375 158.727L12.3125 164.909M14.1875 158L13.25 164.909M15.875 160.364L13.625 165.091M17 162.909L14.1875 165.636" stroke="black" stroke-opacity="0.09" stroke-width="0.8"/>
<path d="M11.0185 183.719C10.7904 186.005 12.7288 187.356 13.8689 187.876C14.154 187.962 15.5222 188.161 17.0044 187.746C19.2847 186.499 20.4248 183.849 19.8547 183.719C19.2846 183.589 18.572 184.455 18.287 184.758L18.8571 183.329C19.5412 182.083 19.9972 180.732 19.2846 180.602C18.5721 180.472 17.5269 182.377 17.2894 183.2C17.5269 181.554 17.7169 178.134 16.8618 178.004C16.0067 177.874 15.5316 181.035 15.4366 182.68C15.1515 181.381 14.7239 178.913 13.8689 178.913C13.0138 178.913 13.8689 183.849 13.7263 183.2C13.6123 182.68 12.4437 180.342 12.0162 180.862C11.5886 181.381 12.2061 183.676 12.3011 184.239C11.389 183.407 11.066 183.546 11.0185 183.719Z" fill="#FFE787"/>
<path d="M11.0185 183.719C10.7904 186.005 12.7288 187.356 13.8689 187.876C14.154 187.962 15.5222 188.161 17.0044 187.746C19.2847 186.499 20.4248 183.849 19.8547 183.719C19.2846 183.589 18.572 184.455 18.287 184.758L18.8571 183.329C19.5412 182.083 19.9972 180.732 19.2846 180.602C18.5721 180.472 17.5269 182.377 17.2894 183.2C17.5269 181.554 17.7169 178.134 16.8618 178.004C16.0067 177.874 15.5316 181.035 15.4366 182.68C15.1515 181.381 14.7239 178.913 13.8689 178.913C13.0138 178.913 13.8689 183.849 13.7263 183.2C13.6123 182.68 12.4437 180.342 12.0162 180.862C11.5886 181.381 12.2061 183.676 12.3011 184.239C11.389 183.407 11.066 183.546 11.0185 183.719Z" stroke="#FFE787" stroke-width="0.5"/>
<path d="M11.0185 183.719C10.7904 186.005 12.7288 187.356 13.8689 187.876C14.154 187.962 15.5222 188.161 17.0044 187.746C19.2847 186.499 20.4248 183.849 19.8547 183.719C19.2846 183.589 18.572 184.455 18.287 184.758L18.8571 183.329C19.5412 182.083 19.9972 180.732 19.2846 180.602C18.5721 180.472 17.5269 182.377 17.2894 183.2C17.5269 181.554 17.7169 178.134 16.8618 178.004C16.0067 177.874 15.5316 181.035 15.4366 182.68C15.1515 181.381 14.7239 178.913 13.8689 178.913C13.0138 178.913 13.8689 183.849 13.7263 183.2C13.6123 182.68 12.4437 180.342 12.0162 180.862C11.5886 181.381 12.2061 183.676 12.3011 184.239C11.389 183.407 11.066 183.546 11.0185 183.719Z" stroke="black" stroke-opacity="0.09" stroke-width="0.5"/>
<path d="M12 185L14.7708 188M13.3125 183.773L14.9167 187.455M14.625 182.545L15.3542 187.182M16.8125 182L16.0833 187.182M18.125 183.773L16.375 187.318M19 185.682L16.8125 187.727" stroke="#FFE787" stroke-width="0.8"/>
<path d="M12 185L14.7708 188M13.3125 183.773L14.9167 187.455M14.625 182.545L15.3542 187.182M16.8125 182L16.0833 187.182M18.125 183.773L16.375 187.318M19 185.682L16.8125 187.727" stroke="black" stroke-opacity="0.09" stroke-width="0.8"/>
<path d="M0 162H36C42.6274 162 48 167.373 48 174V199H12C5.37258 199 0 193.627 0 187V162Z" fill="white"/>
<defs>
<filter id="filter0_f_899_58" x="50.6" y="174.6" width="63.8" height="19.8" filterUnits="userSpaceOnUse" color-interpolation-filters="sRGB">
<feFlood flood-opacity="0" result="BackgroundImageFix"/>
<feBlend mode="normal" in="SourceGraphic" in2="BackgroundImageFix" result="shape"/>
<feGaussianBlur stdDeviation="1.2" result="effect1_foregroundBlur_899_58"/>
</filter>
<linearGradient id="paint0_linear_899_58" x1="83.5" y1="0" x2="83.5" y2="198" gradientUnits="userSpaceOnUse">
<stop stop-color="#E58600"/>
<stop offset="0.26" stop-color="#FFBE61"/>
</linearGradient>
</defs>
</svg>
