<svg width="78" height="78" viewBox="0 0 78 78" fill="none" xmlns="http://www.w3.org/2000/svg">
<circle cx="39" cy="39" r="37" fill="#FFE19D" stroke="white" stroke-width="4"/>
<mask id="mask0_941_1040" style="mask-type:alpha" maskUnits="userSpaceOnUse" x="4" y="4" width="70" height="70">
<circle cx="39" cy="39" r="33" fill="#FFE19D" stroke="white" stroke-width="4"/>
</mask>
<g mask="url(#mask0_941_1040)">
<path d="M52.5945 61.6131C52.5945 56.4236 56.8015 52.2166 61.991 52.2166V52.2166C67.6274 52.2166 72.1965 56.7858 72.1965 62.4221V87.8566C72.1965 93.2696 67.8084 97.6576 62.3955 97.6576V97.6576C56.9826 97.6576 52.5945 93.2696 52.5945 87.8566V61.6131Z" fill="#FFA01F"/>
<path d="M22.3005 64.8052C22.3005 60.5592 25.7426 57.1171 29.9886 57.1171V57.1171C34.6001 57.1171 38.3385 60.8555 38.3385 65.4671V94.5391C38.3385 98.9679 34.7483 102.558 30.3195 102.558V102.558C25.8907 102.558 22.3005 98.9679 22.3005 94.5391V64.8052Z" fill="#FFBE2E"/>
<path d="M64.632 20.1239C58.0027 19.939 55.8106 15.0238 55.5432 12.5893C58.7216 9.06617 62.2181 10.3525 63.569 11.436C66.3578 14.0646 66.6186 15.4491 64.632 20.1239Z" fill="#E57C17"/>
<path d="M-11.2392 60.0444C-16.2787 53.9189 -15.6121 44.9138 -9.72566 39.597V39.597C-3.97121 34.3995 4.81418 34.5065 10.4402 39.8428L35.0649 63.1993C43.0957 70.8165 40.439 84.2044 30.108 88.1778V88.1778C25.8734 89.8065 21.1302 89.439 17.197 87.1774L8.05775 81.9223C6.42886 80.9857 4.98266 79.7624 3.78891 78.3114L-11.2392 60.0444Z" fill="#E57C17"/>
<path d="M5.817 62.5041C5.817 57.3146 10.024 53.1076 15.2135 53.1076V53.1076C20.8498 53.1076 25.419 57.6768 25.419 63.3131V88.7476C25.419 94.1606 21.0309 98.5486 15.618 98.5486V98.5486C10.2051 98.5486 5.817 94.1606 5.817 88.7476V62.5041Z" fill="#FFBE2E"/>
<path d="M39.675 64.8052C39.675 60.5592 43.1171 57.1171 47.3631 57.1171V57.1171C51.9746 57.1171 55.713 60.8555 55.713 65.4671V94.5391C55.713 98.9679 52.1228 102.558 47.694 102.558V102.558C43.2652 102.558 39.675 98.9679 39.675 94.5391V64.8052Z" fill="#FFA01F"/>
<path d="M5.817 41.3019C5.817 22.7256 20.876 7.6666 39.4522 7.6666V7.6666C58.0285 7.6666 73.0875 22.7256 73.0875 41.3018V74.9371C73.0875 85.2709 64.7103 93.6481 54.3765 93.6481H24.528C14.1942 93.6481 5.817 85.2709 5.817 74.9371V41.3019Z" fill="#FFBE2E"/>
<path d="M31.9801 77.3209C33.6656 88.1902 43.2904 90.0286 49.3557 89.5636C66.4603 89.1035 70.3794 81.2543 69.7401 73.0524C66.8817 60.6028 60.4306 58.6313 45.021 60.2417C42.7333 60.4807 29.9408 64.1703 31.9801 77.3209Z" fill="#FFF9BF"/>
<ellipse cx="61.8623" cy="38.2903" rx="2.27897" ry="3.79828" transform="rotate(2.52145 61.8623 38.2903)" fill="#4A1C00"/>
<path d="M35.7237 29.729L32.9343 30.1787" stroke="#E57C17" stroke-width="2.27897" stroke-linecap="round"/>
<path d="M63.8037 30.0424L61.1036 29.2103" stroke="#E57C17" stroke-width="2.27897" stroke-linecap="round"/>
<path d="M46.0828 50.7049C46.0755 51.988 47.1098 53.0341 48.3929 53.0414C49.6759 53.0487 50.722 52.0144 50.7293 50.7313L46.0828 50.7049ZM50.7293 50.7313L50.7674 44.0269L46.1209 44.0005L46.0828 50.7049L50.7293 50.7313Z" fill="white"/>
<path d="M50.705 50.5551C50.6975 51.8703 51.7576 52.9425 53.0728 52.9499C54.3879 52.9574 55.4601 51.8973 55.4676 50.5822L50.705 50.5551ZM55.4676 50.5822L55.5057 43.8777L50.7431 43.8506L50.705 50.5551L55.4676 50.5822Z" fill="white"/>
<path d="M38.3251 44.5063C38.1901 48.2698 41.3119 48.6419 43.074 48.5979L55.3079 49.0812C57.9679 48.8831 60.5077 47.3284 60.2673 44.6152C60.0353 41.9949 57.8231 40.8169 51.9606 40.8758L44.9458 40.7882C41.4888 40.3484 38.44 41.3018 38.3251 44.5063Z" fill="#FFF9BF"/>
<path d="M52.8309 39.2961L47.6513 39.5539C47.2043 39.5762 46.8389 39.9293 46.895 40.3733C47.0957 41.9601 48.2038 44.2262 51.2 43.7272C53.1785 43.3978 53.7195 41.4545 53.6799 40.0199C53.6677 39.5789 53.2715 39.2742 52.8309 39.2961Z" fill="#E57C17"/>
<path d="M24.2773 14.1977C23.6684 19.5624 17.9574 21.3668 13.2297 22.2733C12.916 22.3335 12.5928 22.219 12.399 21.9651C9.24426 17.8293 10.5862 13.179 13.3905 11.4533C18.7196 8.1739 22.8248 11.7831 24.1443 13.6615C24.2537 13.8172 24.2988 14.0086 24.2773 14.1977Z" fill="#E57C17"/>
<path d="M34.0946 37.0204L37.6669 37.2162" stroke="#441F00" stroke-width="1.92" stroke-linecap="round"/>
</g>
<mask id="mask1_941_1040" style="mask-type:alpha" maskUnits="userSpaceOnUse" x="4" y="4" width="70" height="26">
<rect x="4" y="4" width="70" height="26" fill="#D9D9D9"/>
</mask>
<g mask="url(#mask1_941_1040)">
<path d="M64.632 20.1239C58.0027 19.939 55.8106 15.0238 55.5432 12.5893C58.7216 9.06617 62.2181 10.3525 63.569 11.436C66.3578 14.0646 66.6186 15.4491 64.632 20.1239Z" fill="#E57C17"/>
<path d="M-11.2392 60.0444C-16.2787 53.9189 -15.6121 44.9138 -9.72566 39.597V39.597C-3.97121 34.3995 4.81418 34.5065 10.4402 39.8428L35.0649 63.1993C43.0957 70.8165 40.439 84.2044 30.108 88.1778V88.1778C25.8734 89.8065 21.1302 89.439 17.197 87.1774L8.05775 81.9223C6.42886 80.9857 4.98266 79.7624 3.78891 78.3114L-11.2392 60.0444Z" fill="#E57C17"/>
<path d="M5.817 41.3019C5.817 22.7256 20.876 7.6666 39.4522 7.6666V7.6666C58.0285 7.6666 73.0875 22.7256 73.0875 41.3018V74.9371C73.0875 85.2709 64.7103 93.6481 54.3765 93.6481H24.528C14.1942 93.6481 5.817 85.2709 5.817 74.9371V41.3019Z" fill="#FFBE2E"/>
<path d="M35.7237 29.729L32.9343 30.1787" stroke="#E57C17" stroke-width="2.27897" stroke-linecap="round"/>
<path d="M63.8037 30.0424L61.1036 29.2103" stroke="#E57C17" stroke-width="2.27897" stroke-linecap="round"/>
<path d="M24.2773 14.1977C23.6684 19.5624 17.9574 21.3668 13.2297 22.2733C12.916 22.3335 12.5928 22.219 12.399 21.9651C9.24426 17.8293 10.5862 13.179 13.3905 11.4533C18.7196 8.1739 22.8248 11.7831 24.1443 13.6615C24.2537 13.8172 24.2988 14.0086 24.2773 14.1977Z" fill="#E57C17"/>
</g>
</svg>
