<svg width="213" height="216" viewBox="0 0 213 216" fill="none" xmlns="http://www.w3.org/2000/svg">
<path d="M167 122.092C167 110.443 176.443 101 188.092 101V101C200.744 101 211 111.256 211 123.908V181C211 193.15 201.15 203 189 203V203C176.85 203 167 193.15 167 181V122.092Z" fill="#FFA01F"/>
<path d="M99 129.257C99 119.726 106.726 112 116.257 112V112C126.609 112 135 120.391 135 130.743V196C135 205.941 126.941 214 117 214V214C107.059 214 99 205.941 99 196V129.257Z" fill="#FFBE2E"/>
<path d="M194.02 28.9625C179.14 28.5474 174.219 17.5144 173.619 12.0498C180.753 4.14152 188.602 7.02886 191.634 9.46106C197.894 15.3613 198.48 18.469 194.02 28.9625Z" fill="#E57C17"/>
<path d="M23.7144 118.571C12.4025 104.821 13.8987 84.6076 27.1118 72.6732V72.6732C40.0286 61.0064 59.7489 61.2468 72.3775 73.225L127.652 125.652C145.678 142.751 139.715 172.802 116.525 181.721V181.721C107.02 185.377 96.373 184.552 87.5443 179.475L67.0297 167.68C63.3733 165.577 60.1271 162.831 57.4475 159.574L23.7144 118.571Z" fill="#E57C17"/>
<path d="M62 124.092C62 112.443 71.4432 103 83.0921 103V103C95.7438 103 106 113.256 106 125.908V183C106 195.15 96.1503 205 84 205V205C71.8497 205 62 195.15 62 183V124.092Z" fill="#FFBE2E"/>
<path d="M138 129.257C138 119.726 145.726 112 155.257 112V112C165.609 112 174 120.391 174 130.743V196C174 205.941 165.941 214 156 214V214C146.059 214 138 205.941 138 196V129.257Z" fill="#FFA01F"/>
<path d="M62 76.5C62 34.8025 95.8025 0.999985 137.5 0.999985V0.999985C179.197 0.999985 213 34.8025 213 76.5V152C213 175.196 194.196 194 171 194H104C80.804 194 62 175.196 62 152V76.5Z" fill="#FFBE2E"/>
<path d="M120.727 157.351C124.511 181.749 146.115 185.875 159.73 184.832C198.124 183.799 206.921 166.18 205.486 147.77C199.07 119.824 184.589 115.399 150 119.014C144.865 119.55 116.15 127.832 120.727 157.351Z" fill="#FFF9BF"/>
<path d="M163.421 157.233L174.65 167.192" stroke="#FFCA57" stroke-width="2.33173" stroke-linecap="round"/>
<path d="M164.647 168.071L174.68 157.896" stroke="#FFCA57" stroke-width="2.33173" stroke-linecap="round"/>
<ellipse cx="187.803" cy="69.74" rx="5.11552" ry="8.52587" transform="rotate(2.52145 187.803 69.74)" fill="#4A1C00"/>
<ellipse cx="128.045" cy="69.2094" rx="4.85975" ry="8.09958" transform="rotate(-1.31996 128.045 69.2094)" fill="#4A1C00"/>
<path d="M129.131 50.5228L122.869 51.5322" stroke="#E57C17" stroke-width="5.11552" stroke-linecap="round"/>
<path d="M192.161 51.2264L186.1 49.3586" stroke="#E57C17" stroke-width="5.11552" stroke-linecap="round"/>
<path d="M152.383 97.6069C152.367 100.487 154.689 102.835 157.569 102.851C160.449 102.868 162.797 100.546 162.813 97.6662L152.383 97.6069ZM162.813 97.6662L162.899 82.6169L152.469 82.5576L152.383 97.6069L162.813 97.6662Z" fill="white"/>
<path d="M162.759 97.2705C162.742 100.223 165.122 102.629 168.074 102.646C171.026 102.663 173.432 100.283 173.449 97.3313L162.759 97.2705ZM173.449 97.3313L173.535 82.282L162.844 82.2212L162.759 97.2705L173.449 97.3313Z" fill="white"/>
<path d="M134.97 83.693C134.667 92.1408 141.674 92.9761 145.63 92.8772L173.091 93.9622C179.062 93.5174 184.762 90.0277 184.223 83.9375C183.702 78.0558 178.736 75.4114 165.577 75.5437L149.831 75.347C142.071 74.3598 135.228 76.5 134.97 83.693Z" fill="#FFF9BF"/>
<path d="M167.531 71.9978L155.904 72.5765C154.901 72.6265 154.081 73.4191 154.207 74.4157C154.657 77.9776 157.144 83.0642 163.87 81.9442C168.311 81.2047 169.525 76.8426 169.436 73.6224C169.409 72.6326 168.52 71.9486 167.531 71.9978Z" fill="#E57C17"/>
<path d="M103.437 15.6601C102.071 27.7021 89.2513 31.7524 78.6391 33.7873C77.9348 33.9223 77.2094 33.6654 76.7745 33.0953C69.693 23.8119 72.7053 13.3736 79 9.49997C90.9621 2.13874 100.177 10.2402 103.139 14.4566C103.384 14.8061 103.485 15.2357 103.437 15.6601Z" fill="#E57C17"/>
</svg>
