<svg width="79" height="92" viewBox="0 0 79 92" fill="none" xmlns="http://www.w3.org/2000/svg">
<circle cx="40" cy="53" r="37" fill="#E7D8D1" stroke="white" stroke-width="4"/>
<mask id="mask0_941_1149" style="mask-type:alpha" maskUnits="userSpaceOnUse" x="1" y="14" width="78" height="78">
<circle cx="40" cy="53" r="37" fill="#F3E4F1" stroke="white" stroke-width="4"/>
</mask>
<g mask="url(#mask0_941_1149)">
<path d="M21.4295 39.3329C23.4863 38.5261 24.3164 36.609 23.5049 34.5402L21.6113 29.713C22.7119 28.4855 25.0486 26.3753 23.8405 21.2792C22.6325 16.183 17.4184 19.0241 18.3652 21.4377C19.1767 23.5065 18.1128 27.5233 13.6197 26.4821C10.7705 25.8218 11.1579 21.2146 11.6002 19.3171C12.0969 15.5415 8.76878 13.1072 6.41398 16.1794C4.84413 18.2274 4.40158 22.1409 6.90846 27.5233C8.91006 31.8208 13.4986 32.8954 15.7116 32.823L17.4699 37.3054C18.1462 39.0294 19.3728 40.1397 21.4295 39.3329Z" fill="#8E4C2F"/>
<path d="M85.6872 81.1228C87.8444 85.4834 93.9556 107.158 81.9762 110.372C78.3342 111.349 72.3332 114.636 71.2368 102.93C69.6211 85.68 81.6655 80.1271 85.6872 81.1228Z" fill="#AE5E45"/>
<path d="M14.2666 132.461C21.5746 137.845 26.8312 129.127 28.4979 124.768C28.4979 124.768 19.2668 78.6124 18.1128 97.0749C16.9588 115.537 6.95861 127.076 14.2666 132.461Z" fill="#AE5E45"/>
<path d="M1.18912 70.92C7.34319 73.6893 11.4459 72.0739 12.728 70.92C16.4461 65.407 21.6514 54.4578 12.728 54.7655C1.57375 55.1502 0.419861 66.3044 1.18912 70.92Z" fill="#A75A41"/>
<path d="M33.498 29.7647C49.8063 26.6876 60.0374 36.4316 63.1145 41.6882C65.1658 40.6625 71.961 40.1496 75.4226 41.3035C78.8843 42.4574 82.4009 45.5345 79.6536 49.3807C77.7304 52.0732 74.6534 55.5348 68.1147 55.9195C70.0378 82.8435 79.6536 97.4595 82.7306 110.152C85.0384 123.999 73.8841 136.307 48.8832 137.846C23.8823 139.384 16.9589 94.7671 12.728 73.9971C8.49707 53.227 13.1126 33.611 33.498 29.7647Z" fill="#BF6E53"/>
<path d="M22.3434 73.2277C22.6511 78.4587 28.4975 78.9972 31.1899 77.8433C32.2156 79.3818 32.3438 82.8435 36.5748 82.0742C36.5748 79.7665 36.8315 77.3305 37.3443 76.6894C43.883 75.1509 46.5754 73.997 45.8059 68.2275C44.9781 62.0213 38.8828 62.4581 32.7284 63.9966C25.9191 65.6988 21.9588 66.689 22.3434 73.2277Z" fill="#FFC39B"/>
<path d="M37.3443 70.5354L29.6517 72.0739C29.7799 73.356 30.8825 75.7664 34.2673 75.151C37.652 74.5355 37.7289 71.8175 37.3443 70.5354Z" fill="white"/>
<ellipse cx="32.3214" cy="65.8252" rx="3.8463" ry="2.30778" transform="rotate(-10.7125 32.3214 65.8252)" fill="#4A1C00"/>
<ellipse cx="45.8062" cy="58.2273" rx="2.30778" ry="3.8463" transform="rotate(-6.29949 45.8062 58.2273)" fill="#4A1C00"/>
<ellipse cx="22.2973" cy="62.8115" rx="2.19239" ry="3.65398" transform="rotate(-10.1409 22.2973 62.8115)" fill="#4A1C00"/>
<path d="M41.9598 47.073L48.8832 47.8422" stroke="#8E4C2F" stroke-width="2.30778" stroke-linecap="round"/>
<path d="M22.3437 50.9193L17.7282 53.227" stroke="#8E4C2F" stroke-width="2.30778" stroke-linecap="round"/>
<path d="M36.9597 87.8436C22.3438 92.8438 25.8054 103.229 28.4979 115.922C31.9595 128.999 39.2675 135.922 52.3449 132.845C62.8068 130.384 62.0888 117.973 60.4221 112.075L57.345 101.306C55.0373 88.9976 45.4215 84.9488 36.9597 87.8436Z" fill="#FFC39B"/>
<path d="M92.7008 86.3101C90.4906 90.4363 78.4144 87.0247 74.2354 84.7286C66.3058 80.7507 63.4067 77.9893 64.2318 72.1934C65.0568 66.3976 70.9208 66.4078 74.379 69.3392C75.9385 70.6611 84.4656 74.7591 88.1372 75.8555C92.9683 77.2981 95.9326 80.2767 92.7008 86.3101Z" fill="#BF6E53"/>
<path d="M45.0369 36.688C42.7291 36.688 41.1906 35.1495 41.1906 32.8417V27.4569C39.6521 26.6876 36.575 25.5337 35.8058 20.1489C35.0365 14.7641 41.1906 15.5333 41.1906 18.2257C41.1906 20.5335 45.0369 23.9952 47.7293 21.3028C49.8832 19.1489 48.1139 15.2769 46.96 13.6102C45.0369 10.1485 47.3446 6.53309 50.8063 8.61005C53.1141 9.99468 55.0373 13.6102 54.6526 19.7643C54.3455 24.678 50.2935 27.4569 48.1139 28.2261V33.2263C48.1139 35.1495 47.3447 36.688 45.0369 36.688Z" fill="#8E4C2F"/>
</g>
<mask id="mask1_941_1149" style="mask-type:alpha" maskUnits="userSpaceOnUse" x="0" y="0" width="75" height="84">
<path d="M0 0H75V44.1429C75 66.1553 57.1553 84 35.1429 84V84C15.734 84 0 68.266 0 48.8571V0Z" fill="#D9D9D9"/>
</mask>
<g mask="url(#mask1_941_1149)">
<path d="M21.4295 39.3329C23.4863 38.5261 24.3164 36.609 23.5049 34.5402L21.6113 29.713C22.7119 28.4855 25.0486 26.3753 23.8405 21.2792C22.6325 16.183 17.4184 19.0241 18.3652 21.4377C19.1767 23.5065 18.1128 27.5233 13.6197 26.4821C10.7705 25.8218 11.1579 21.2146 11.6002 19.3171C12.0969 15.5415 8.76878 13.1072 6.41398 16.1794C4.84413 18.2274 4.40158 22.1409 6.90846 27.5233C8.91006 31.8208 13.4986 32.8954 15.7116 32.823L17.4699 37.3054C18.1462 39.0294 19.3728 40.1397 21.4295 39.3329Z" fill="#8E4C2F"/>
<path d="M85.6872 81.1228C87.8444 85.4834 93.9556 107.158 81.9762 110.372C78.3342 111.349 72.3332 114.636 71.2368 102.93C69.6211 85.68 81.6655 80.1271 85.6872 81.1228Z" fill="#AE5E45"/>
<path d="M14.2666 132.461C21.5746 137.845 26.8312 129.127 28.4979 124.768C28.4979 124.768 19.2668 78.6124 18.1128 97.0749C16.9588 115.537 6.95861 127.076 14.2666 132.461Z" fill="#AE5E45"/>
<path d="M1.18912 70.92C7.34319 73.6893 11.4459 72.0739 12.728 70.92C16.4461 65.407 21.6514 54.4578 12.728 54.7655C1.57375 55.1502 0.419861 66.3044 1.18912 70.92Z" fill="#A75A41"/>
<path d="M33.498 29.7647C49.8063 26.6876 60.0374 36.4316 63.1145 41.6882C65.1658 40.6625 71.961 40.1496 75.4226 41.3035C78.8843 42.4574 82.4009 45.5345 79.6536 49.3807C77.7304 52.0732 74.6534 55.5348 68.1147 55.9195C70.0378 82.8435 79.6536 97.4595 82.7306 110.152C85.0384 123.999 73.8841 136.307 48.8832 137.846C23.8823 139.384 16.9589 94.7671 12.728 73.9971C8.49707 53.227 13.1126 33.611 33.498 29.7647Z" fill="#BF6E53"/>
<path d="M22.3434 73.2277C22.6511 78.4587 28.4975 78.9972 31.1899 77.8433C32.2156 79.3818 32.3438 82.8435 36.5748 82.0742C36.5748 79.7665 36.8315 77.3305 37.3443 76.6894C43.883 75.1509 46.5754 73.997 45.8059 68.2275C44.9781 62.0213 38.8828 62.4581 32.7284 63.9966C25.9191 65.6988 21.9588 66.689 22.3434 73.2277Z" fill="#FFC39B"/>
<path d="M37.3443 70.5354L29.6517 72.0739C29.7799 73.356 30.8825 75.7664 34.2673 75.151C37.652 74.5355 37.7289 71.8175 37.3443 70.5354Z" fill="white"/>
<ellipse cx="32.3214" cy="65.8252" rx="3.8463" ry="2.30778" transform="rotate(-10.7125 32.3214 65.8252)" fill="#4A1C00"/>
<ellipse cx="45.8062" cy="58.2273" rx="2.30778" ry="3.8463" transform="rotate(-6.29949 45.8062 58.2273)" fill="#4A1C00"/>
<ellipse cx="22.2973" cy="62.8115" rx="2.19239" ry="3.65398" transform="rotate(-10.1409 22.2973 62.8115)" fill="#4A1C00"/>
<path d="M41.9598 47.073L48.8832 47.8422" stroke="#8E4C2F" stroke-width="2.30778" stroke-linecap="round"/>
<path d="M22.3437 50.9193L17.7282 53.227" stroke="#8E4C2F" stroke-width="2.30778" stroke-linecap="round"/>
<path d="M92.7008 86.3101C90.4906 90.4363 78.4144 87.0247 74.2354 84.7286C66.3058 80.7507 63.4067 77.9893 64.2318 72.1934C65.0568 66.3976 70.9208 66.4078 74.379 69.3392C75.9385 70.6611 84.4656 74.7591 88.1372 75.8555C92.9683 77.2981 95.9326 80.2767 92.7008 86.3101Z" fill="#BF6E53"/>
<path d="M45.0369 36.688C42.7291 36.688 41.1906 35.1495 41.1906 32.8417V27.4569C39.6521 26.6876 36.575 25.5337 35.8058 20.1489C35.0365 14.7641 41.1906 15.5333 41.1906 18.2257C41.1906 20.5335 45.0369 23.9952 47.7293 21.3028C49.8832 19.1489 48.1139 15.2769 46.96 13.6102C45.0369 10.1485 47.3446 6.53309 50.8063 8.61005C53.1141 9.99468 55.0373 13.6102 54.6526 19.7643C54.3455 24.678 50.2935 27.4569 48.1139 28.2261V33.2263C48.1139 35.1495 47.3447 36.688 45.0369 36.688Z" fill="#8E4C2F"/>
</g>
</svg>
