<svg width="79" height="92" viewBox="0 0 79 92" fill="none" xmlns="http://www.w3.org/2000/svg">
<circle cx="40" cy="53" r="37" fill="#F3E4F1" stroke="white" stroke-width="4"/>
<mask id="mask0_941_1061" style="mask-type:alpha" maskUnits="userSpaceOnUse" x="1" y="14" width="78" height="78">
<circle cx="40" cy="53" r="37" fill="#F3E4F1" stroke="white" stroke-width="4"/>
</mask>
<g mask="url(#mask0_941_1061)">
<path d="M29.07 37.05V9" stroke="#DE50AA" stroke-width="16.32" stroke-linecap="round"/>
<path d="M29.07 37.05V9" stroke="#FFAECC" stroke-width="9.18" stroke-linecap="round"/>
<path d="M51.51 37.05V9" stroke="#DE50AA" stroke-width="16.32" stroke-linecap="round"/>
<path d="M51.51 37.05V9" stroke="#FFAECC" stroke-width="9.18" stroke-linecap="round"/>
<path d="M63.75 126.81V98.76" stroke="#D13D99" stroke-width="17.34" stroke-linecap="round"/>
<path d="M71.91 66.12V97.3048C71.91 97.7591 72.0141 98.2066 72.1977 98.6227C79.07 114.166 70.2534 136.731 42.075 134.97C14.3255 133.236 10.2 129.105 10.2 118.65V68.67C9.095 56.77 13.719 32.97 41.055 32.97C68.391 32.97 72.93 55.75 71.91 66.12Z" fill="#DE50A8"/>
<path d="M24.4801 68.1604C23.9275 61.2385 29.2083 57.2371 32.3851 56.1754C31.9918 53.047 31.9926 51.4375 31.4541 50.3134C34.6611 50.5459 37.0056 54.5464 37.7401 56.1754C40.8001 56.1754 48.4517 56.4819 52.02 56.4304C59.3445 56.3246 66.9426 56.6689 67.83 66.8854C68.5402 75.0586 62.3747 78.2657 59.67 78.8704C52.53 79.3804 34.1701 79.244 32.3851 78.6154C29.8913 77.7374 25.1708 76.8126 24.4801 68.1604Z" fill="#FFA6C9"/>
<path d="M58.9747 70.4327C60.2807 70.4327 61.3395 68.6682 61.3395 66.4915C61.3395 64.3148 60.2807 62.5502 58.9747 62.5502C57.6687 62.5502 56.6099 64.3148 56.6099 66.4915C56.6099 68.6682 57.6687 70.4327 58.9747 70.4327Z" fill="#750F4C"/>
<path d="M38.0648 70.4327C39.3708 70.4327 40.4295 68.6682 40.4295 66.4915C40.4295 64.3148 39.3708 62.5502 38.0648 62.5502C36.7588 62.5502 35.7 64.3148 35.7 66.4915C35.7 68.6682 36.7588 70.4327 38.0648 70.4327Z" fill="#750F4C"/>
<path d="M54.1072 71.73H43.86C44.254 75.277 47.4071 75.6714 50.1662 75.6714C53.3435 75.6714 54.1072 73.3063 54.1072 71.73Z" fill="white"/>
<path d="M20.8862 42.9852C18.6422 39.7212 16.5512 42.3052 15.7862 44.0051C13.4912 42.9853 10.4312 45.5351 12.4712 48.3401C10.6862 48.5951 7.62616 51.6551 12.4712 53.1851C9.81916 59.9171 13.5762 58.7101 15.7862 57.2651C15.2762 60.3251 20.3762 62.1101 21.3962 56.5001C24.2012 58.7951 28.7912 55.2251 25.4762 51.6551C31.5962 50.1251 29.3012 45.5351 24.4562 46.0451C28.5362 41.7102 22.4162 39.6702 20.8862 42.9852Z" fill="white"/>
<path d="M20.3363 52.3011C22.1005 51.0627 22.7706 48.9758 21.8329 47.64C20.8953 46.3043 18.7049 46.2253 16.9406 47.4638C15.1764 48.7022 14.5063 50.7891 15.444 52.1249C16.3817 53.4607 18.572 53.5396 20.3363 52.3011Z" fill="#FFD900"/>
</g>
<mask id="mask1_941_1061" style="mask-type:alpha" maskUnits="userSpaceOnUse" x="0" y="0" width="75" height="84">
<path d="M0 0H75V44.1429C75 66.1553 57.1553 84 35.1429 84V84C15.734 84 0 68.266 0 48.8571V0Z" fill="#D9D9D9"/>
</mask>
<g mask="url(#mask1_941_1061)">
<path d="M29.07 37.05V9" stroke="#DE50AA" stroke-width="16.32" stroke-linecap="round"/>
<path d="M29.07 37.05V9" stroke="#FFAECC" stroke-width="9.18" stroke-linecap="round"/>
<path d="M51.51 37.05V9" stroke="#DE50AA" stroke-width="16.32" stroke-linecap="round"/>
<path d="M51.51 37.05V9" stroke="#FFAECC" stroke-width="9.18" stroke-linecap="round"/>
<path d="M71.91 66.12V97.3048C71.91 97.7591 72.0141 98.2066 72.1977 98.6227C79.07 114.166 70.2534 136.731 42.075 134.97C14.3255 133.236 10.2 129.105 10.2 118.65V68.67C9.095 56.77 13.719 32.97 41.055 32.97C68.391 32.97 72.93 55.75 71.91 66.12Z" fill="#DE50A8"/>
<path d="M24.4801 68.1604C23.9275 61.2385 29.2083 57.2371 32.3851 56.1754C31.9918 53.047 31.9926 51.4375 31.4541 50.3134C34.6611 50.5459 37.0056 54.5464 37.7401 56.1754C40.8001 56.1754 48.4517 56.4819 52.02 56.4304C59.3445 56.3246 66.9426 56.6689 67.83 66.8854C68.5402 75.0586 62.3747 78.2657 59.67 78.8704C52.53 79.3804 34.1701 79.244 32.3851 78.6154C29.8913 77.7374 25.1708 76.8126 24.4801 68.1604Z" fill="#FFA6C9"/>
<path d="M58.9747 70.4327C60.2807 70.4327 61.3395 68.6682 61.3395 66.4915C61.3395 64.3148 60.2807 62.5502 58.9747 62.5502C57.6687 62.5502 56.6099 64.3148 56.6099 66.4915C56.6099 68.6682 57.6687 70.4327 58.9747 70.4327Z" fill="#750F4C"/>
<path d="M38.0648 70.4327C39.3708 70.4327 40.4295 68.6682 40.4295 66.4915C40.4295 64.3148 39.3708 62.5502 38.0648 62.5502C36.7588 62.5502 35.7 64.3148 35.7 66.4915C35.7 68.6682 36.7588 70.4327 38.0648 70.4327Z" fill="#750F4C"/>
<path d="M54.1072 71.73H43.86C44.254 75.277 47.4071 75.6714 50.1662 75.6714C53.3435 75.6714 54.1072 73.3063 54.1072 71.73Z" fill="white"/>
<path d="M20.8862 42.9852C18.6422 39.7212 16.5512 42.3052 15.7862 44.0051C13.4912 42.9853 10.4312 45.5351 12.4712 48.3401C10.6862 48.5951 7.62616 51.6551 12.4712 53.1851C9.81916 59.9171 13.5762 58.7101 15.7862 57.2651C15.2762 60.3251 20.3762 62.1101 21.3962 56.5001C24.2012 58.7951 28.7912 55.2251 25.4762 51.6551C31.5962 50.1251 29.3012 45.5351 24.4562 46.0451C28.5362 41.7102 22.4162 39.6702 20.8862 42.9852Z" fill="white"/>
<path d="M20.3363 52.3011C22.1005 51.0627 22.7706 48.9758 21.8329 47.64C20.8953 46.3043 18.7049 46.2253 16.9406 47.4638C15.1764 48.7022 14.5063 50.7891 15.444 52.1249C16.3817 53.4607 18.572 53.5396 20.3363 52.3011Z" fill="#FFD900"/>
</g>
</svg>
