<svg width="176" height="354" viewBox="0 0 176 354" fill="none" xmlns="http://www.w3.org/2000/svg">
<path d="M68.4 86V20" stroke="#DE50AA" stroke-width="38.4" stroke-linecap="round"/>
<path d="M68.4 86V20" stroke="#FFAECC" stroke-width="21.6" stroke-linecap="round"/>
<path d="M121.2 86V20" stroke="#DE50AA" stroke-width="38.4" stroke-linecap="round"/>
<path d="M121.2 86V20" stroke="#FFAECC" stroke-width="21.6" stroke-linecap="round"/>
<path d="M44.4 304.4V238.4" stroke="#DE50A8" stroke-width="40.8" stroke-linecap="round"/>
<path d="M150 297.2V231.2" stroke="#D13D99" stroke-width="40.8" stroke-linecap="round"/>
<path d="M114.6 335.6V269.6" stroke="#D03F99" stroke-width="36" stroke-linecap="round"/>
<circle cx="22.2" cy="271.4" r="22.2" fill="#D03F99"/>
<path d="M169.2 154.4V227.776C169.2 228.845 169.445 229.898 169.877 230.877C186.047 267.449 165.302 320.544 99 316.4C33.707 312.319 24 302.6 24 278V160.4C21.4 132.4 32.28 76.4 96.6 76.4C160.92 76.4 171.6 130 169.2 154.4Z" fill="#DE50A8"/>
<path d="M73.8 335.6V269.6" stroke="#DE50A8" stroke-width="36" stroke-linecap="round"/>
<ellipse cx="124.2" cy="258.8" rx="37.8" ry="38.4" fill="#FFAFCC"/>
<path d="M126.832 248.104L137.465 256.853" stroke="#FF3888" stroke-width="2.737" stroke-linecap="round"/>
<path d="M128.319 257.685L136.881 247.618" stroke="#FF3888" stroke-width="2.737" stroke-linecap="round"/>
<path d="M57.6003 159.201C56.3001 142.914 68.7255 133.499 76.2003 131.001C75.2747 123.64 75.2768 119.853 74.0096 117.208C81.5556 117.755 87.0721 127.168 88.8003 131.001C96.0003 131.001 114.004 131.722 122.4 131.601C139.634 131.352 157.512 132.162 159.6 156.201C161.271 175.432 146.764 182.978 140.4 184.401C123.6 185.601 80.4003 185.28 76.2003 183.801C70.3325 181.735 59.2255 179.559 57.6003 159.201Z" fill="#FFA6C9"/>
<ellipse cx="138.764" cy="155.274" rx="5.56414" ry="9.27356" fill="#750F4C"/>
<ellipse cx="89.5642" cy="155.274" rx="5.56414" ry="9.27356" fill="#750F4C"/>
<path d="M127.311 167.6H103.2C104.127 175.946 111.546 176.874 118.038 176.874C125.514 176.874 127.311 171.309 127.311 167.6Z" fill="white"/>
<path d="M49.144 99.9652C43.864 92.2852 38.944 98.3652 37.144 102.365C31.744 99.9654 24.5439 105.965 29.3439 112.565C25.1439 113.165 17.9439 120.365 29.3439 123.965C23.1039 139.805 31.944 136.965 37.144 133.565C35.944 140.765 47.9439 144.965 50.344 131.765C56.944 137.165 67.744 128.765 59.944 120.365C74.344 116.765 68.944 105.965 57.544 107.165C67.144 96.9652 52.744 92.1652 49.144 99.9652Z" fill="white"/>
<ellipse cx="43.8552" cy="116.194" rx="9.18344" ry="6.95314" transform="rotate(-35.0675 43.8552 116.194)" fill="#FFD900"/>
</svg>
