<svg width="112" height="285" viewBox="0 0 112 285" fill="none" xmlns="http://www.w3.org/2000/svg">
<rect x="83.6" y="0.400024" width="23.2" height="112.8" rx="11.6" fill="#98B9BB"/>
<rect y="2" width="24" height="123" rx="12" fill="#A2C1C4"/>
<path fill-rule="evenodd" clip-rule="evenodd" d="M80 66.4552C81.4667 64.7219 83.52 60.0552 80 55.2552C71.6 55.6552 66.2667 57.7885 62.8 59.6552C61.7675 60.2462 61.1649 60.3483 60 59.6552C59.6 58.9885 59.2 56.8553 61.2 55.2552C63.185 53.6672 50.5913 52.419 41.4077 61.0037C17.9022 66.5153 0.400024 87.6137 0.400024 112.8V214.8H106.8V112.8C106.8 92.9623 95.9421 75.6606 79.845 66.5137C79.8966 66.4943 79.9483 66.4748 80 66.4552Z" fill="#A2C1C4"/>
<path d="M26.8 242H58.8V267.6C58.8 276.437 51.6366 283.6 42.8 283.6V283.6C33.9635 283.6 26.8 276.437 26.8 267.6V242Z" fill="#A2C1C4"/>
<path d="M60.4 242.8H90.8V269.2C90.8 277.595 83.9948 284.4 75.6 284.4V284.4C67.2053 284.4 60.4 277.595 60.4 269.2V242.8Z" fill="#A2C1C4"/>
<rect x="26.8" y="240.4" width="32" height="24.8" fill="#B9D300"/>
<rect x="60.4" y="241.2" width="30.4" height="25.6" fill="#B9D300"/>
<path d="M30.8 259.6C8.80002 257.6 0.533358 232.933 0.400024 221.2V214.8H111.6V221.6C108.72 251.04 92 258 82.4 259.6C74.9334 259.867 54.16 260.24 30.8 259.6Z" fill="#CCE70C"/>
<path fill-rule="evenodd" clip-rule="evenodd" d="M98.8002 214.8C103.067 215.333 109.762 217.765 106.8 224.8C103.6 232.4 101.6 233.6 92.7999 228C90.9332 225.733 87.2799 222.96 87.5999 230C87.9999 238.8 87.1999 240.8 77.5999 236.8C67.9999 232.8 66.8 230 74.3999 225.6C77.3333 223.867 80.8 220.64 71.2 221.6C60.6755 222.652 60.3045 221.551 58.7533 216.947C58.5358 216.301 58.2951 215.587 58 214.8H98.8002ZM6.00002 214.8C8.40002 217.2 10.4 220.8 5.60005 223.6C0.800046 226.4 0.400046 226.8 10.4 234C18.4 239.76 19.3334 234.267 18.8001 230.8C18 221.2 21.6001 224 24 229.2C26.3431 235.058 28.4319 234.307 30.2666 233.648L30.4 233.6C33.6 232.4 34.8 231.2 36.8 229.2C40.4 224.4 38.5333 223.067 36.4 222C35.4667 221.733 33.04 220.64 30.8 218.4C28.5601 216.16 29.8665 215.067 30.7999 214.8L6.00002 214.8ZM55.268 259.951C47.9434 259.936 39.7318 259.841 31.1639 259.61C30.9149 258.86 30.4089 258.139 29.6 257.6C24 254.4 24 253.6 28 248.8C32 244 38 242.8 38.4 247.6L38.4167 247.8C38.8005 252.411 38.8338 252.811 41.2 253.6C43.12 254.24 44.4 249.333 44.8 246.8C44.8 242.8 46 239.6 57.6 244.4C63.7989 248.877 60.8063 250.982 57.5568 253.268C57.032 253.637 56.5005 254.011 56 254.4C53.12 256.64 56.1333 258.8 58 259.6L55.268 259.951ZM100.29 250.26C94.5395 256.293 87.8001 258.634 82.8205 259.527C82.4203 259.433 82.0134 259.324 81.5999 259.2C82.3999 258.133 83.7599 255.52 82.7999 253.6C81.5999 251.2 82.7999 249.2 92.7999 247.6C94.3999 247.2 100.8 245.6 100.4 249.6C100.379 249.807 100.342 250.028 100.29 250.26Z" fill="#BE8FFE"/>
<path d="M51.7268 176.698C35.2 181.2 28.0001 193.6 29.2001 209.068V214.8H111.6V208.731C109.466 183.914 100.8 180 89.9627 176.698C86.8 175.2 65.2 174 51.7268 176.698Z" fill="white"/>
<ellipse cx="63.7588" cy="121.949" rx="40.3836" ry="24.634" transform="rotate(-1.42646 63.7588 121.949)" fill="white"/>
<path d="M36.8001 104C28.4801 106.88 26.8 109.2 27.6 112C40.4 116.4 62.0002 102.4 52.8002 98C43.6002 93.6 39.2002 96.4 43.2002 100C36.4002 97.6 32.0002 104 36.8001 104Z" fill="white"/>
<path d="M90.6275 104.122C97.6 106 98.8 109.2 99.429 111.609C87.1836 115.727 66.5194 101.825 75.3207 97.7073C84.1221 93.5895 86.8 97.7072 84.5048 100.379C90 97.6 94.8 104.122 90.6275 104.122Z" fill="white"/>
<ellipse cx="40.8" cy="123.2" rx="5.2" ry="7.6" fill="#3B3B3B"/>
<ellipse cx="86.3999" cy="123.2" rx="5.2" ry="7.6" fill="#3B3B3B"/>
<ellipse cx="65.2001" cy="128.8" rx="6.4" ry="4" fill="#3B3B3B"/>
<path d="M72.4 136.4H58C58.2667 139.067 59.2 143.2 65.2 143.2C71.2 143.2 72.4 138.533 72.4 136.4Z" fill="#FCA291"/>
</svg>
